<svg width="386" height="351" viewBox="0 0 386 351" fill="none" xmlns="http://www.w3.org/2000/svg">
<path d="M357.87 259.555C385.394 194.715 388.891 103.073 341.428 46.1548C315.247 14.7571 274.057 4.29114 234.738 1.98864C199.498 -0.104547 161.774 0.732727 129.764 17.285C75.5247 45.3981 74.1566 112.235 33.5012 151.676C0.738949 183.5 -12.8614 228.809 15.1165 288.449C43.0943 348.089 95.059 361.59 146.214 342.51C197.369 323.429 220.555 319.452 282.112 328.992C310.398 333.38 330.928 312.263 343.338 289.544C348.657 279.754 353.539 269.755 357.87 259.555Z" fill="#0C87DE"/>
<path opacity="0.7" d="M357.87 259.555C385.394 194.715 388.891 103.073 341.428 46.1548C315.247 14.7571 274.057 4.29114 234.738 1.98864C199.498 -0.104547 161.774 0.732727 129.764 17.285C75.5247 45.3981 74.1566 112.235 33.5012 151.676C0.738949 183.5 -12.8614 228.809 15.1165 288.449C43.0943 348.089 95.059 361.59 146.214 342.51C197.369 323.429 220.555 319.452 282.112 328.992C310.398 333.38 330.928 312.263 343.338 289.544C348.657 279.754 353.539 269.755 357.87 259.555Z" fill="white"/>
<path d="M202.065 16.4558C201.895 15.9405 201.725 15.4253 201.539 14.91C194.649 -4.14601 162.591 -5.45828 162.591 17.9612C162.591 22.4696 151.711 17.9612 147.623 23.8222C143.535 29.6831 148.076 33.2898 142.636 35.0932C137.196 36.8965 136.743 32.3881 129.942 32.839C123.142 33.2898 124.041 39.6096 121.774 41.413C119.507 43.2163 119.507 42.3146 114.488 42.7655C109.469 43.2163 108.595 46.7908 108.595 46.7908H227.897C227.897 46.7908 232.431 33.2576 224.271 28.2742C216.11 23.2908 216.078 30.1339 209.755 27.4289C204.51 25.1908 203.53 20.9481 202.065 16.4558Z" stroke="#B2B2B2" stroke-linecap="round" stroke-linejoin="round"/>
<path d="M206.185 41.8879C206.185 41.8879 208.654 34.2961 202.591 28.7089C196.527 23.1217 190.237 26.2535 188.44 28.7089C186.643 31.1644 186.643 35.858 183.729 36.3088C180.814 36.7596 181.478 31.3898 175.188 32.7343C168.898 34.0787 171.375 40.3261 168.452 41.6625C165.53 42.9989 165.53 38.0719 161.49 39.682C157.451 41.2922 157.669 44.1502 157.669 44.1502" stroke="#B2B2B2" stroke-linecap="round" stroke-linejoin="round"/>
<path d="M173.925 26.7124C172.271 25.5412 170.332 24.8317 168.309 24.6576C166.286 24.4835 164.253 24.851 162.421 25.7221C155.945 28.7009 158.924 34.9241 155.945 36.4135C152.966 37.9029 151.444 36.1639 147.696 37.9028C143.947 39.6418 144.166 42.0973 144.166 42.0973" stroke="#B2B2B2" stroke-linecap="round" stroke-linejoin="round"/>
<path d="M61.212 177.985C61.123 177.703 61.0258 177.43 60.9287 177.18C57.2048 166.883 39.8805 166.175 39.8805 178.831C39.8805 181.246 33.9951 178.831 31.7851 181.994C29.575 185.158 32.0279 187.115 29.0893 188.089C26.1507 189.063 25.8997 186.624 22.2244 186.873C18.549 187.123 19.0348 190.528 17.8123 191.502C16.5899 192.476 16.5899 191.985 13.8941 192.235C11.1984 192.485 10.7045 194.425 10.7045 194.425H75.2172C75.2172 194.425 77.6458 187.115 73.25 184.434C68.8541 181.753 68.846 185.408 65.4136 183.943C62.5397 182.703 62.0054 180.408 61.212 177.985Z" stroke="#B2B2B2" stroke-linecap="round" stroke-linejoin="round"/>
<path d="M63.4383 191.728C63.7968 190.476 63.8061 189.151 63.4653 187.895C63.1245 186.638 62.4463 185.497 61.5035 184.595C58.2653 181.576 54.8248 183.266 53.8533 184.595C52.8818 185.923 52.8818 188.459 51.3032 188.701C49.7246 188.942 50.0889 186.044 46.6888 186.769C43.2887 187.493 44.6326 190.874 43.054 191.599C41.4754 192.323 41.4349 189.667 39.2896 190.512C37.1443 191.357 37.2253 192.927 37.2253 192.927" stroke="#B2B2B2" stroke-linecap="round" stroke-linejoin="round"/>
<path d="M46.0088 183.524C45.115 182.891 44.0672 182.507 42.974 182.412C41.8808 182.317 40.782 182.515 39.7915 182.985C36.2781 184.595 37.9053 187.96 36.2781 188.765C34.6509 189.57 33.8495 188.636 31.8175 189.57C29.7855 190.504 29.9313 191.84 29.9313 191.84" stroke="#B2B2B2" stroke-linecap="round" stroke-linejoin="round"/>
<path d="M299.097 114.723C298.773 113.724 298.433 112.718 298.069 111.712C284.622 74.5336 222.085 71.9734 222.085 117.661C222.085 126.461 200.85 117.661 192.884 129.093C184.919 140.525 193.775 147.61 183.17 151.096C172.565 154.582 171.666 145.815 158.398 146.692C145.129 147.57 146.894 159.895 142.466 163.413C138.038 166.932 138.046 165.177 128.315 166.054C118.584 166.932 116.812 173.976 116.812 173.976H349.499C349.499 173.976 358.347 147.562 342.424 137.901C326.5 128.24 326.492 141.427 314.09 136.146C303.873 131.774 301.963 123.498 299.097 114.723Z" stroke="#B2B2B2" stroke-linecap="round" stroke-linejoin="round"/>
<path d="M212.484 168.703C212.484 168.703 212.046 163.067 219.939 159.992C227.833 156.917 227.824 166.529 233.524 163.913C239.223 161.296 234.398 149.091 246.671 146.475C258.943 143.858 257.624 154.324 263.323 153.455C269.022 152.585 268.99 143.424 272.527 138.633C276.065 133.843 288.297 127.741 300.133 138.633C311.968 149.526 307.144 164.347 307.144 164.347" stroke="#B2B2B2" stroke-linecap="round" stroke-linejoin="round"/>
<path d="M244.201 134.737C240.973 132.449 237.188 131.062 233.239 130.721C229.29 130.38 225.321 131.096 221.745 132.797C209.051 138.617 214.912 150.75 209.051 153.664C203.19 156.578 200.276 153.181 192.957 156.57C185.639 159.96 186.125 164.822 186.125 164.822" stroke="#B2B2B2" stroke-linecap="round" stroke-linejoin="round"/>
<path d="M368.734 348.306L360.031 252.865H139.803L138.774 348.306H368.734Z" fill="#0C87DE" stroke="#263238" stroke-linecap="round" stroke-linejoin="round"/>
<path d="M362.784 283.031H139.479L139.722 260.143H360.695L362.784 283.031Z" fill="#0C87DE" stroke="#263238" stroke-linecap="round" stroke-linejoin="round"/>
<path d="M362.104 275.552H139.552L139.803 252.865H360.031L362.104 275.552Z" fill="#263238" stroke="#263238" stroke-linecap="round" stroke-linejoin="round"/>
<path d="M142.693 348.306L144.943 83.9288H108.724L99.973 348.306H142.693Z" fill="#0C87DE" stroke="#263238" stroke-linecap="round" stroke-linejoin="round"/>
<path d="M144.409 146.515H106.652L108.344 95.4735H144.846L144.409 146.515Z" fill="#0C87DE" stroke="#263238" stroke-linecap="round" stroke-linejoin="round"/>
<path d="M144.441 143.407H106.757L108.344 95.4735H144.846L144.441 143.407Z" fill="#0C87DE" stroke="#263238" stroke-linecap="round" stroke-linejoin="round"/>
<path d="M147.688 134.02H103.899L105.259 95.4735H147.93L147.688 134.02Z" fill="#0C87DE" stroke="#263238" stroke-linecap="round" stroke-linejoin="round"/>
<path d="M142.045 134.02H109.542L110.756 95.4735H142.434L142.045 134.02Z" fill="#0C87DE" stroke="#263238" stroke-linecap="round" stroke-linejoin="round"/>
<path d="M140.321 101.077H112.837L112.043 127.733H140.013L140.321 101.077Z" fill="white" stroke="#263238" stroke-linecap="round" stroke-linejoin="round"/>
<path d="M138.961 114.497C138.958 112.877 138.63 111.274 137.997 109.782C137.364 108.289 136.438 106.937 135.274 105.805C134.109 104.672 132.729 103.782 131.215 103.186C129.7 102.59 128.082 102.3 126.453 102.333C119.467 102.333 113.638 107.759 113.444 114.497C113.416 116.134 113.721 117.76 114.34 119.277C114.959 120.794 115.88 122.171 117.047 123.326C118.214 124.48 119.604 125.389 121.132 125.997C122.661 126.604 124.297 126.899 125.943 126.863C133.043 126.863 138.872 121.3 138.961 114.497Z" fill="white" stroke="#263238" stroke-linecap="round" stroke-linejoin="round"/>
<path d="M134.314 114.497C134.315 113.47 134.11 112.453 133.711 111.506C133.311 110.558 132.726 109.7 131.988 108.981C131.251 108.262 130.376 107.696 129.416 107.318C128.456 106.939 127.429 106.755 126.397 106.777C124.278 106.739 122.228 107.524 120.683 108.966C119.138 110.408 118.22 112.392 118.123 114.497C118.109 115.531 118.304 116.557 118.697 117.515C119.09 118.472 119.673 119.34 120.412 120.068C121.15 120.797 122.028 121.369 122.994 121.752C123.959 122.136 124.993 122.321 126.032 122.298C128.166 122.338 130.229 121.542 131.778 120.083C133.327 118.624 134.238 116.618 134.314 114.497Z" stroke="#0B0B0B" stroke-width="0.5" stroke-linejoin="round"/>
<path d="M126.453 102.333L126.356 106.777" stroke="#0B0B0B" stroke-width="0.5" stroke-linejoin="round"/>
<path d="M126.04 122.298L125.943 126.863" stroke="#0B0B0B" stroke-width="0.5" stroke-linejoin="round"/>
<path d="M138.961 114.497H134.273" stroke="#0B0B0B" stroke-width="0.5" stroke-linejoin="round"/>
<path d="M118.131 114.497H113.444" stroke="#0B0B0B" stroke-width="0.5" stroke-linejoin="round"/>
<path d="M133.577 104.45L130.873 108.129" stroke="#0B0B0B" stroke-width="0.5" stroke-linejoin="round"/>
<path d="M121.483 120.922L118.722 124.681" stroke="#0B0B0B" stroke-width="0.5" stroke-linejoin="round"/>
<path d="M137.455 108.604L133.326 110.762" stroke="#0B0B0B" stroke-width="0.5" stroke-linejoin="round"/>
<path d="M119.038 118.249L114.861 120.439" stroke="#0B0B0B" stroke-width="0.5" stroke-linejoin="round"/>
<path d="M137.916 119.231L133.602 117.492" stroke="#0B0B0B" stroke-width="0.5" stroke-linejoin="round"/>
<path d="M118.827 111.519L114.561 109.788" stroke="#0B0B0B" stroke-width="0.5" stroke-linejoin="round"/>
<path d="M133.577 124.456L130.857 120.785" stroke="#0B0B0B" stroke-width="0.5" stroke-linejoin="round"/>
<path d="M121.58 108.266L118.916 104.667" stroke="#0B0B0B" stroke-width="0.5" stroke-linejoin="round"/>
<path d="M128.42 115.995L116.763 108.129" stroke="#0B0B0B" stroke-width="0.5" stroke-linejoin="round"/>
<path d="M125.36 116.438L128.518 110.762" stroke="#0B0B0B" stroke-width="0.5" stroke-linejoin="round"/>
<path d="M148.044 78.5912H105.85L105.664 83.9288H148.011L148.044 78.5912Z" fill="#0C87DE" stroke="#263238" stroke-linecap="round" stroke-linejoin="round"/>
<path d="M137.601 60.4609H117.435C116.455 64.0757 112.221 73.5675 109.339 78.5911H144.959V78.4301C142.247 73.4226 138.426 64.0355 137.601 60.4609Z" fill="#C4C4C4" stroke="#263238" stroke-linecap="round" stroke-linejoin="round"/>
<path d="M138.038 57.5788H117.046L116.965 60.4609H137.997L138.038 57.5788Z" fill="white" stroke="#263238" stroke-linecap="round" stroke-linejoin="round"/>
<path d="M138.273 40.2859H117.532L117.459 42.9748H138.232L138.273 40.2859Z" fill="#0C87DE" stroke="#263238" stroke-linecap="round" stroke-linejoin="round"/>
<path d="M137.244 42.9748H118.18L117.775 57.5788H137.042L137.244 42.9748Z" fill="#0C87DE" stroke="#263238" stroke-linecap="round" stroke-linejoin="round"/>
<path d="M128.809 8.6305H128.323C126.16 19.4828 122.782 30.0601 118.252 40.1651H137.285C133.279 30.0029 130.436 19.4249 128.809 8.6305Z" fill="#C4C4C4" stroke="#263238" stroke-linecap="round" stroke-linejoin="round"/>
<path d="M123.045 69.1155H120.544L120.657 64.6795L121.928 63.7457L123.15 64.6795L123.045 69.1155Z" fill="white" stroke="#263238" stroke-linecap="round" stroke-linejoin="round"/>
<path d="M128.558 69.1155H126.048L126.146 64.6795L127.417 63.7457L128.647 64.6795L128.558 69.1155Z" fill="white" stroke="#263238" stroke-linecap="round" stroke-linejoin="round"/>
<path d="M134.063 69.1155H131.561L131.642 64.6795L132.905 63.7457L134.136 64.6795L134.063 69.1155Z" fill="white" stroke="#263238" stroke-linecap="round" stroke-linejoin="round"/>
<path d="M123.992 56.4356H121.968L122.155 48.715L123.199 47.1048L124.17 48.715L123.992 56.4356Z" fill="#263238" stroke="#263238" stroke-linecap="round" stroke-linejoin="round"/>
<path d="M128.445 56.4356H126.421L126.583 48.715L127.627 47.1048L128.599 48.715L128.445 56.4356Z" fill="#263238" stroke="#263238" stroke-linecap="round" stroke-linejoin="round"/>
<path d="M132.897 56.4356H130.873L131.011 48.715L132.047 47.1048L133.027 48.715L132.897 56.4356Z" fill="#263238" stroke="#263238" stroke-linecap="round" stroke-linejoin="round"/>
<path d="M120.147 76.5543H117.629L117.751 72.0701L119.03 71.1281L120.26 72.0701L120.147 76.5543Z" fill="white" stroke="#263238" stroke-linecap="round" stroke-linejoin="round"/>
<path d="M125.684 76.5543H123.167L123.272 72.0701L124.551 71.1281L125.781 72.0701L125.684 76.5543Z" fill="white" stroke="#263238" stroke-linecap="round" stroke-linejoin="round"/>
<path d="M131.23 76.5543H128.712L128.801 72.0701L130.072 71.1281L131.302 72.0701L131.23 76.5543Z" fill="white" stroke="#263238" stroke-linecap="round" stroke-linejoin="round"/>
<path d="M136.67 76.5543H134.152L134.225 72.0701L135.496 71.1281L136.734 72.0701L136.67 76.5543Z" fill="white" stroke="#263238" stroke-linecap="round" stroke-linejoin="round"/>
<path d="M114.48 93.8392H111.744L112.011 85.1686H114.731L114.48 93.8392Z" fill="#263238" stroke="#263238" stroke-linecap="round" stroke-linejoin="round"/>
<path d="M119.888 93.8392H117.152L117.386 85.1686H120.106L119.888 93.8392Z" fill="#263238" stroke="#263238" stroke-linecap="round" stroke-linejoin="round"/>
<path d="M125.296 93.8392H122.559L122.762 85.1686H125.482L125.296 93.8392Z" fill="#263238" stroke="#263238" stroke-linecap="round" stroke-linejoin="round"/>
<path d="M130.703 93.8392H127.967L128.137 85.1686H130.857L130.703 93.8392Z" fill="#263238" stroke="#263238" stroke-linecap="round" stroke-linejoin="round"/>
<path d="M136.111 93.8392H133.375L133.512 85.1686H136.232L136.111 93.8392Z" fill="#263238" stroke="#263238" stroke-linecap="round" stroke-linejoin="round"/>
<path d="M141.511 93.8392H138.774L138.888 85.1686H141.608L141.511 93.8392Z" fill="#263238" stroke="#263238" stroke-linecap="round" stroke-linejoin="round"/>
<path d="M113.047 143.271H110.222L110.505 134.02H113.314L113.047 143.271Z" fill="#263238" stroke="#263238" stroke-linecap="round" stroke-linejoin="round"/>
<path d="M118.633 143.271H115.808L116.059 134.02H118.868L118.633 143.271Z" fill="#263238" stroke="#263238" stroke-linecap="round" stroke-linejoin="round"/>
<path d="M124.219 143.271H121.394L121.612 134.02H124.421L124.219 143.271Z" fill="#263238" stroke="#263238" stroke-linecap="round" stroke-linejoin="round"/>
<path d="M129.805 143.271H126.979L127.166 134.02H129.975L129.805 143.271Z" fill="#263238" stroke="#263238" stroke-linecap="round" stroke-linejoin="round"/>
<path d="M135.399 143.271H132.565L132.719 134.02H135.528L135.399 143.271Z" fill="#263238" stroke="#263238" stroke-linecap="round" stroke-linejoin="round"/>
<path d="M140.985 143.271H138.151L138.273 134.02H141.082L140.985 143.271Z" fill="#263238" stroke="#263238" stroke-linecap="round" stroke-linejoin="round"/>
<path d="M112.124 175.055H109.242L110.06 148.512H112.893L112.124 175.055Z" fill="#0C87DE" stroke="#263238" stroke-linecap="round" stroke-linejoin="round"/>
<path d="M117.832 175.055H114.941L115.662 148.512H118.503L117.832 175.055Z" fill="#0C87DE" stroke="#263238" stroke-linecap="round" stroke-linejoin="round"/>
<path d="M123.531 175.055H120.649L121.272 148.512H124.106L123.531 175.055Z" fill="#0C87DE" stroke="#263238" stroke-linecap="round" stroke-linejoin="round"/>
<path d="M129.23 175.055H126.348L126.874 148.512H129.716L129.23 175.055Z" fill="#0C87DE" stroke="#263238" stroke-linecap="round" stroke-linejoin="round"/>
<path d="M134.937 175.055H132.047L132.484 148.512H135.318L134.937 175.055Z" fill="#0C87DE" stroke="#263238" stroke-linecap="round" stroke-linejoin="round"/>
<path d="M140.636 175.055H137.754L138.086 148.512H140.928L140.636 175.055Z" fill="#0C87DE" stroke="#263238" stroke-linecap="round" stroke-linejoin="round"/>
<path d="M111.881 183.508H108.983L109.194 176.609H112.084L111.881 183.508Z" fill="#0C87DE" stroke="#263238" stroke-linecap="round" stroke-linejoin="round"/>
<path d="M117.613 183.508H114.715L114.901 176.609H117.791L117.613 183.508Z" fill="#0C87DE" stroke="#263238" stroke-linecap="round" stroke-linejoin="round"/>
<path d="M123.345 183.508H120.446L120.608 176.609H123.498L123.345 183.508Z" fill="#0C87DE" stroke="#263238" stroke-linecap="round" stroke-linejoin="round"/>
<path d="M129.084 183.508H126.178L126.316 176.609H129.206L129.084 183.508Z" fill="#0C87DE" stroke="#263238" stroke-linecap="round" stroke-linejoin="round"/>
<path d="M134.816 183.508H131.91L132.023 176.609H134.913L134.816 183.508Z" fill="#0C87DE" stroke="#263238" stroke-linecap="round" stroke-linejoin="round"/>
<path d="M140.547 183.508H137.649L137.73 176.609H140.62L140.547 183.508Z" fill="#0C87DE" stroke="#263238" stroke-linecap="round" stroke-linejoin="round"/>
<path d="M110.74 222.876H107.769L107.987 215.622H110.95L110.74 222.876Z" fill="#0C87DE" stroke="#263238" stroke-linecap="round" stroke-linejoin="round"/>
<path d="M116.617 222.876H113.646L113.841 215.622H116.803L116.617 222.876Z" fill="#0C87DE" stroke="#263238" stroke-linecap="round" stroke-linejoin="round"/>
<path d="M122.495 222.876H119.515L119.694 215.622H122.648L122.495 222.876Z" fill="#0C87DE" stroke="#263238" stroke-linecap="round" stroke-linejoin="round"/>
<path d="M128.372 222.876H125.393L125.538 215.622H128.501L128.372 222.876Z" fill="#0C87DE" stroke="#263238" stroke-linecap="round" stroke-linejoin="round"/>
<path d="M134.249 222.876H131.27L131.391 215.622H134.354L134.249 222.876Z" fill="#0C87DE" stroke="#263238" stroke-linecap="round" stroke-linejoin="round"/>
<path d="M140.126 222.876H137.147L137.244 215.622H140.199L140.126 222.876Z" fill="#0C87DE" stroke="#263238" stroke-linecap="round" stroke-linejoin="round"/>
<path d="M110.999 213.988H108.036L108.935 185.078H111.833L110.999 213.988Z" fill="#0C87DE" stroke="#263238" stroke-linecap="round" stroke-linejoin="round"/>
<path d="M116.844 213.988H113.881L114.674 185.078H117.573L116.844 213.988Z" fill="#0C87DE" stroke="#263238" stroke-linecap="round" stroke-linejoin="round"/>
<path d="M122.689 213.988H119.726L120.406 185.078H123.312L122.689 213.988Z" fill="#0C87DE" stroke="#263238" stroke-linecap="round" stroke-linejoin="round"/>
<path d="M128.534 213.988H125.571L126.146 185.078H129.052L128.534 213.988Z" fill="#0C87DE" stroke="#263238" stroke-linecap="round" stroke-linejoin="round"/>
<path d="M134.371 213.988H131.416L131.885 185.078H134.792L134.371 213.988Z" fill="#0C87DE" stroke="#263238" stroke-linecap="round" stroke-linejoin="round"/>
<path d="M140.215 213.988H137.261L137.625 185.078H140.531L140.215 213.988Z" fill="#0C87DE" stroke="#263238" stroke-linecap="round" stroke-linejoin="round"/>
<path d="M109.809 254.91H106.781L107.712 224.526H110.691L109.809 254.91Z" fill="#0C87DE" stroke="#263238" stroke-linecap="round" stroke-linejoin="round"/>
<path d="M115.808 254.91H112.772L113.598 224.526H116.577L115.808 254.91Z" fill="#0C87DE" stroke="#263238" stroke-linecap="round" stroke-linejoin="round"/>
<path d="M121.798 254.91H118.762L119.483 224.526H122.454L121.798 254.91Z" fill="#0C87DE" stroke="#263238" stroke-linecap="round" stroke-linejoin="round"/>
<path d="M127.789 254.91H124.761L125.36 224.526H128.339L127.789 254.91Z" fill="#0C87DE" stroke="#263238" stroke-linecap="round" stroke-linejoin="round"/>
<path d="M133.788 254.91H130.752L131.246 224.526H134.225L133.788 254.91Z" fill="#0C87DE" stroke="#263238" stroke-linecap="round" stroke-linejoin="round"/>
<path d="M139.778 254.91H136.743L137.131 224.526H140.102L139.778 254.91Z" fill="#0C87DE" stroke="#263238" stroke-linecap="round" stroke-linejoin="round"/>
<path d="M108.279 307.747H105.146L105.397 299.712H108.514L108.279 307.747Z" fill="#0C87DE" stroke="#263238" stroke-linecap="round" stroke-linejoin="round"/>
<path d="M114.464 307.747H111.339L111.55 299.712H114.666L114.464 307.747Z" fill="#0C87DE" stroke="#263238" stroke-linecap="round" stroke-linejoin="round"/>
<path d="M120.649 307.747H117.524L117.71 299.712H120.827L120.649 307.747Z" fill="#0C87DE" stroke="#263238" stroke-linecap="round" stroke-linejoin="round"/>
<path d="M126.834 307.747H123.709L123.863 299.712H126.979L126.834 307.747Z" fill="#0C87DE" stroke="#263238" stroke-linecap="round" stroke-linejoin="round"/>
<path d="M133.027 307.747H129.894L130.023 299.712H133.14L133.027 307.747Z" fill="#0C87DE" stroke="#263238" stroke-linecap="round" stroke-linejoin="round"/>
<path d="M139.212 307.747H136.079L136.176 299.712H139.293L139.212 307.747Z" fill="#0C87DE" stroke="#263238" stroke-linecap="round" stroke-linejoin="round"/>
<path d="M107.251 343.274H104.053L105.097 309.574H108.23L107.251 343.274Z" fill="#0C87DE" stroke="#263238" stroke-linecap="round" stroke-linejoin="round"/>
<path d="M113.565 343.274H110.368L111.282 309.574H114.423L113.565 343.274Z" fill="#0C87DE" stroke="#263238" stroke-linecap="round" stroke-linejoin="round"/>
<path d="M119.88 343.274H116.682L117.475 309.574H120.608L119.88 343.274Z" fill="#0C87DE" stroke="#263238" stroke-linecap="round" stroke-linejoin="round"/>
<path d="M126.194 343.274H122.996L123.668 309.574H126.801L126.194 343.274Z" fill="#0C87DE" stroke="#263238" stroke-linecap="round" stroke-linejoin="round"/>
<path d="M132.509 343.274H129.311L129.861 309.574H132.994L132.509 343.274Z" fill="#0C87DE" stroke="#263238" stroke-linecap="round" stroke-linejoin="round"/>
<path d="M138.823 343.274H135.625L136.054 309.574H139.187L138.823 343.274Z" fill="#0C87DE" stroke="#263238" stroke-linecap="round" stroke-linejoin="round"/>
<path d="M109.42 268.427H106.36L106.725 256.649H109.76L109.42 268.427Z" fill="#0C87DE" stroke="#263238" stroke-linecap="round" stroke-linejoin="round"/>
<path d="M115.46 268.427H112.408L112.723 256.649H115.759L115.46 268.427Z" fill="#0C87DE" stroke="#263238" stroke-linecap="round" stroke-linejoin="round"/>
<path d="M121.507 268.427H118.447L118.722 256.649H121.758L121.507 268.427Z" fill="#0C87DE" stroke="#263238" stroke-linecap="round" stroke-linejoin="round"/>
<path d="M127.546 268.427H124.486L124.721 256.649H127.757L127.546 268.427Z" fill="#0C87DE" stroke="#263238" stroke-linecap="round" stroke-linejoin="round"/>
<path d="M133.585 268.427H130.533L130.719 256.649H133.755L133.585 268.427Z" fill="#0C87DE" stroke="#263238" stroke-linecap="round" stroke-linejoin="round"/>
<path d="M139.633 268.427H136.572L136.718 256.649H139.762L139.633 268.427Z" fill="#0C87DE" stroke="#263238" stroke-linecap="round" stroke-linejoin="round"/>
<path d="M108.562 297.997H105.446L106.312 270.174H109.372L108.562 297.997Z" fill="#0C87DE" stroke="#263238" stroke-linecap="round" stroke-linejoin="round"/>
<path d="M114.715 297.997H111.598L112.359 270.174H115.419L114.715 297.997Z" fill="#0C87DE" stroke="#263238" stroke-linecap="round" stroke-linejoin="round"/>
<path d="M120.859 297.997H117.751L118.406 270.174H121.466L120.859 297.997Z" fill="#0C87DE" stroke="#263238" stroke-linecap="round" stroke-linejoin="round"/>
<path d="M127.012 297.997H123.903L124.454 270.174H127.514L127.012 297.997Z" fill="#0C87DE" stroke="#263238" stroke-linecap="round" stroke-linejoin="round"/>
<path d="M133.164 297.997H130.048L130.501 270.174H133.561L133.164 297.997Z" fill="#0C87DE" stroke="#263238" stroke-linecap="round" stroke-linejoin="round"/>
<path d="M139.317 297.997H136.2L136.548 270.174H139.616L139.317 297.997Z" fill="#0C87DE" stroke="#263238" stroke-linecap="round" stroke-linejoin="round"/>
<path d="M129.036 1.69883H128.453L128.299 9.41141H128.874L129.036 1.69883Z" fill="#625D40"/>
<path d="M131.837 5.80469L131.845 5.28944H125.498L125.49 5.80469H131.837Z" fill="#625D40"/>
<path d="M128.882 21.0366H127.611L127.659 18.8549L128.299 18.4041L128.922 18.8549L128.882 21.0366Z" fill="white" stroke="#263238" stroke-linecap="round" stroke-linejoin="round"/>
<path d="M128.558 36.8724H127.279L127.319 34.6504L127.975 34.1834L128.599 34.6504L128.558 36.8724Z" fill="white" stroke="#263238" stroke-linecap="round" stroke-linejoin="round"/>
<path d="M124.405 36.8724H123.126L123.175 34.6504L123.83 34.1834L124.454 34.6504L124.405 36.8724Z" fill="white" stroke="#263238" stroke-linecap="round" stroke-linejoin="round"/>
<path d="M132.687 36.8724H131.408L131.448 34.6504L132.096 34.1834L132.727 34.6504L132.687 36.8724Z" fill="white" stroke="#263238" stroke-linecap="round" stroke-linejoin="round"/>
<path d="M126.575 29.82H125.296L125.352 27.6141L125.992 27.1552L126.623 27.6141L126.575 29.82Z" fill="white" stroke="#263238" stroke-linecap="round" stroke-linejoin="round"/>
<path d="M130.825 29.82H129.554L129.594 27.6141L130.242 27.1552L130.865 27.6141L130.825 29.82Z" fill="white" stroke="#263238" stroke-linecap="round" stroke-linejoin="round"/>
<path d="M168.76 348.306L168.193 261.012H163.417L163.733 348.306H168.76Z" fill="#0C87DE" stroke="#263238" stroke-linecap="round" stroke-linejoin="round"/>
<path d="M166.979 255.481H164.631L164.648 257.607H166.995L166.979 255.481Z" fill="#0C87DE" stroke="#263238" stroke-linecap="round" stroke-linejoin="round"/>
<path d="M166.906 247.994H164.575L165.255 250.103H166.169L166.906 247.994Z" fill="#0C87DE" stroke="#263238" stroke-linecap="round" stroke-linejoin="round"/>
<path d="M167.481 257.18H164.154L164.162 259.313H167.489L167.481 257.18Z" fill="#0C87DE" stroke="#263238" stroke-linecap="round" stroke-linejoin="round"/>
<path d="M168.218 258.629H163.433V260.425H168.234L168.218 258.629Z" fill="#0C87DE" stroke="#263238" stroke-linecap="round" stroke-linejoin="round"/>
<path d="M168.801 260.336H162.867L162.875 261.962H168.809L168.801 260.336Z" fill="#0C87DE" stroke="#263238" stroke-linecap="round" stroke-linejoin="round"/>
<path d="M165.983 244.009H165.457L165.514 255.457H166.048L165.983 244.009Z" fill="#0C87DE" stroke="#263238" stroke-linecap="round" stroke-linejoin="round"/>
<path d="M196.722 348.306L194.755 261.012H189.978L191.694 348.306H196.722Z" fill="#0C87DE" stroke="#263238" stroke-linecap="round" stroke-linejoin="round"/>
<path d="M193.451 255.481H191.103L191.144 257.607H193.5L193.451 255.481Z" fill="#0C87DE" stroke="#263238" stroke-linecap="round" stroke-linejoin="round"/>
<path d="M193.257 247.994H190.917L191.638 250.103H192.553L193.257 247.994Z" fill="#0C87DE" stroke="#263238" stroke-linecap="round" stroke-linejoin="round"/>
<path d="M193.977 257.18H190.65L190.699 259.313H194.026L193.977 257.18Z" fill="#0C87DE" stroke="#263238" stroke-linecap="round" stroke-linejoin="round"/>
<path d="M194.738 258.629H189.954L189.986 260.425H194.779L194.738 258.629Z" fill="#0C87DE" stroke="#263238" stroke-linecap="round" stroke-linejoin="round"/>
<path d="M195.345 260.336H189.411L189.444 261.962H195.386L195.345 260.336Z" fill="#0C87DE" stroke="#263238" stroke-linecap="round" stroke-linejoin="round"/>
<path d="M192.269 244.009H191.743L191.978 255.457H192.512L192.269 244.009Z" fill="#0C87DE" stroke="#263238" stroke-linecap="round" stroke-linejoin="round"/>
<path d="M224.683 348.306L221.308 261.012H216.531L219.656 348.306H224.683Z" fill="#0C87DE" stroke="#263238" stroke-linecap="round" stroke-linejoin="round"/>
<path d="M219.923 255.481H217.576L217.648 257.607H220.004L219.923 255.481Z" fill="#0C87DE" stroke="#263238" stroke-linecap="round" stroke-linejoin="round"/>
<path d="M219.607 247.994H217.268L218.013 250.103H218.936L219.607 247.994Z" fill="#0C87DE" stroke="#263238" stroke-linecap="round" stroke-linejoin="round"/>
<path d="M220.474 257.18H217.147L217.227 259.313H220.555L220.474 257.18Z" fill="#0C87DE" stroke="#263238" stroke-linecap="round" stroke-linejoin="round"/>
<path d="M221.259 258.629H216.475L216.531 260.425H221.332L221.259 258.629Z" fill="#0C87DE" stroke="#263238" stroke-linecap="round" stroke-linejoin="round"/>
<path d="M221.89 260.336H215.965L216.021 261.962H221.955L221.89 260.336Z" fill="#0C87DE" stroke="#263238" stroke-linecap="round" stroke-linejoin="round"/>
<path d="M218.555 244.009H218.021L218.45 255.457H218.984L218.555 244.009Z" fill="#0C87DE" stroke="#263238" stroke-linecap="round" stroke-linejoin="round"/>
<path d="M252.645 348.306L247.869 261.012H243.092L247.618 348.306H252.645Z" fill="#0C87DE" stroke="#263238" stroke-linecap="round" stroke-linejoin="round"/>
<path d="M246.387 255.481H244.04L244.153 257.607H246.509L246.387 255.481Z" fill="#0C87DE" stroke="#263238" stroke-linecap="round" stroke-linejoin="round"/>
<path d="M245.958 247.994H243.619L244.396 250.103H245.319L245.958 247.994Z" fill="#0C87DE" stroke="#263238" stroke-linecap="round" stroke-linejoin="round"/>
<path d="M246.97 257.18H243.643L243.756 259.313H247.083L246.97 257.18Z" fill="#0C87DE" stroke="#263238" stroke-linecap="round" stroke-linejoin="round"/>
<path d="M247.78 258.629H242.987L243.084 260.425H247.877L247.78 258.629Z" fill="#0C87DE" stroke="#263238" stroke-linecap="round" stroke-linejoin="round"/>
<path d="M248.443 260.336H242.509L242.59 261.962H248.532L248.443 260.336Z" fill="#0C87DE" stroke="#263238" stroke-linecap="round" stroke-linejoin="round"/>
<path d="M244.841 244.009H244.307L244.922 255.457H245.456L244.841 244.009Z" fill="#0C87DE" stroke="#263238" stroke-linecap="round" stroke-linejoin="round"/>
<path d="M280.607 348.306L274.422 261.012H269.653L275.579 348.306H280.607Z" fill="#0C87DE" stroke="#263238" stroke-linecap="round" stroke-linejoin="round"/>
<path d="M272.859 255.481H270.512L270.657 257.607H273.005L272.859 255.481Z" fill="#0C87DE" stroke="#263238" stroke-linecap="round" stroke-linejoin="round"/>
<path d="M272.309 247.994H269.969L270.779 250.103H271.702L272.309 247.994Z" fill="#0C87DE" stroke="#263238" stroke-linecap="round" stroke-linejoin="round"/>
<path d="M273.466 257.18H270.139L270.285 259.313H273.612L273.466 257.18Z" fill="#0C87DE" stroke="#263238" stroke-linecap="round" stroke-linejoin="round"/>
<path d="M274.3 258.629H269.508L269.629 260.425H274.422L274.3 258.629Z" fill="#0C87DE" stroke="#263238" stroke-linecap="round" stroke-linejoin="round"/>
<path d="M274.988 260.336H269.054L269.168 261.962H275.102L274.988 260.336Z" fill="#0C87DE" stroke="#263238" stroke-linecap="round" stroke-linejoin="round"/>
<path d="M271.127 244.009H270.593L271.386 255.457H271.92L271.127 244.009Z" fill="#0C87DE" stroke="#263238" stroke-linecap="round" stroke-linejoin="round"/>
<path d="M308.568 348.306L300.983 261.012H296.207L303.541 348.306H308.568Z" fill="#0C87DE" stroke="#263238" stroke-linecap="round" stroke-linejoin="round"/>
<path d="M299.331 255.481H296.984L297.162 257.607H299.51L299.331 255.481Z" fill="#0C87DE" stroke="#263238" stroke-linecap="round" stroke-linejoin="round"/>
<path d="M298.651 247.994H296.32L297.162 250.103H298.085L298.651 247.994Z" fill="#0C87DE" stroke="#263238" stroke-linecap="round" stroke-linejoin="round"/>
<path d="M299.963 257.18H296.636L296.822 259.313H300.149L299.963 257.18Z" fill="#0C87DE" stroke="#263238" stroke-linecap="round" stroke-linejoin="round"/>
<path d="M300.821 258.629H296.029L296.182 260.425H300.975L300.821 258.629Z" fill="#0C87DE" stroke="#263238" stroke-linecap="round" stroke-linejoin="round"/>
<path d="M301.534 260.336H295.608L295.737 261.962H301.679L301.534 260.336Z" fill="#0C87DE" stroke="#263238" stroke-linecap="round" stroke-linejoin="round"/>
<path d="M297.413 244.009H296.879L297.858 255.457H298.392L297.413 244.009Z" fill="#0C87DE" stroke="#263238" stroke-linecap="round" stroke-linejoin="round"/>
<path d="M156.058 268.354H148.003L147.963 275.576H156.05L156.058 268.354Z" fill="#0C87DE" stroke="#263238" stroke-linecap="round" stroke-linejoin="round"/>
<path d="M152.059 260.569L150.95 268.153H153.111L152.059 260.569Z" fill="#0C87DE" stroke="#263238" stroke-linecap="round" stroke-linejoin="round"/>
<path d="M182.595 268.354H174.548L174.621 275.576H182.708L182.595 268.354Z" fill="#0C87DE" stroke="#263238" stroke-linecap="round" stroke-linejoin="round"/>
<path d="M178.475 260.569L177.487 268.153H179.648L178.475 260.569Z" fill="#0C87DE" stroke="#263238" stroke-linecap="round" stroke-linejoin="round"/>
<path d="M209.14 268.354H201.085L201.279 275.576H209.359L209.14 268.354Z" fill="#0C87DE" stroke="#263238" stroke-linecap="round" stroke-linejoin="round"/>
<path d="M204.89 260.569L204.024 268.153H206.185L204.89 260.569Z" fill="#0C87DE" stroke="#263238" stroke-linecap="round" stroke-linejoin="round"/>
<path d="M235.677 268.354H227.63L227.93 275.576H236.017L235.677 268.354Z" fill="#0C87DE" stroke="#263238" stroke-linecap="round" stroke-linejoin="round"/>
<path d="M231.306 260.569L230.561 268.153H232.722L231.306 260.569Z" fill="#0C87DE" stroke="#263238" stroke-linecap="round" stroke-linejoin="round"/>
<path d="M262.214 268.354H254.167L254.588 275.576H262.675L262.214 268.354Z" fill="#0C87DE" stroke="#263238" stroke-linecap="round" stroke-linejoin="round"/>
<path d="M257.721 260.569L257.097 268.153H259.259L257.721 260.569Z" fill="#0C87DE" stroke="#263238" stroke-linecap="round" stroke-linejoin="round"/>
<path d="M288.759 268.354H280.704L281.246 275.576H289.325L288.759 268.354Z" fill="#0C87DE" stroke="#263238" stroke-linecap="round" stroke-linejoin="round"/>
<path d="M284.136 260.569L283.634 268.153H285.796L284.136 260.569Z" fill="#0C87DE" stroke="#263238" stroke-linecap="round" stroke-linejoin="round"/>
<path d="M157.613 301.073H146.603L146.708 284.697H157.613V301.073Z" fill="#0C87DE" stroke="#263238" stroke-linecap="round" stroke-linejoin="round"/>
<path d="M184.813 301.073H173.803L173.65 284.697H184.554L184.813 301.073Z" fill="#0C87DE" stroke="#263238" stroke-linecap="round" stroke-linejoin="round"/>
<path d="M212.014 301.073H201.004L200.583 284.697H211.488L212.014 301.073Z" fill="#0C87DE" stroke="#263238" stroke-linecap="round" stroke-linejoin="round"/>
<path d="M239.223 301.073H228.213L227.525 284.697H238.429L239.223 301.073Z" fill="#0C87DE" stroke="#263238" stroke-linecap="round" stroke-linejoin="round"/>
<path d="M266.423 301.073H255.414L254.466 284.697H265.371L266.423 301.073Z" fill="#0C87DE" stroke="#263238" stroke-linecap="round" stroke-linejoin="round"/>
<path d="M293.624 301.073H282.614L281.4 284.697H292.305L293.624 301.073Z" fill="#0C87DE" stroke="#263238" stroke-linecap="round" stroke-linejoin="round"/>
<path d="M157.613 322.495H146.465L146.57 305.71H157.613V322.495Z" fill="#0C87DE" stroke="#263238" stroke-linecap="round" stroke-linejoin="round"/>
<path d="M185.161 322.495H174.014L173.852 305.71H184.886L185.161 322.495Z" fill="#0C87DE" stroke="#263238" stroke-linecap="round" stroke-linejoin="round"/>
<path d="M212.71 322.495H201.555L201.126 305.71H212.168L212.71 322.495Z" fill="#0C87DE" stroke="#263238" stroke-linecap="round" stroke-linejoin="round"/>
<path d="M240.251 322.495H229.104L228.407 305.71H239.441L240.251 322.495Z" fill="#0C87DE" stroke="#263238" stroke-linecap="round" stroke-linejoin="round"/>
<path d="M267.8 322.495H256.652L255.681 305.71H266.723L267.8 322.495Z" fill="#0C87DE" stroke="#263238" stroke-linecap="round" stroke-linejoin="round"/>
<path d="M295.349 322.495H284.201L282.954 305.71H293.997L295.349 322.495Z" fill="#0C87DE" stroke="#263238" stroke-linecap="round" stroke-linejoin="round"/>
<path d="M157.613 344.474H146.319L146.433 327.253H157.613V344.474Z" fill="#0C87DE" stroke="#263238" stroke-linecap="round" stroke-linejoin="round"/>
<path d="M185.518 344.474H174.224L174.054 327.253H185.234L185.518 344.474Z" fill="#0C87DE" stroke="#263238" stroke-linecap="round" stroke-linejoin="round"/>
<path d="M213.414 344.474H202.121L201.676 327.253H212.864L213.414 344.474Z" fill="#0C87DE" stroke="#263238" stroke-linecap="round" stroke-linejoin="round"/>
<path d="M241.319 344.474H230.026L229.306 327.253H240.486L241.319 344.474Z" fill="#0C87DE" stroke="#263238" stroke-linecap="round" stroke-linejoin="round"/>
<path d="M269.216 344.474H257.923L256.928 327.253H268.107L269.216 344.474Z" fill="#0C87DE" stroke="#263238" stroke-linecap="round" stroke-linejoin="round"/>
<path d="M297.113 344.474H285.82L284.549 327.253H295.729L297.113 344.474Z" fill="#0C87DE" stroke="#263238" stroke-linecap="round" stroke-linejoin="round"/>
<path d="M335.858 348.306L328.273 261.012H323.496L330.831 348.306H335.858Z" fill="#0C87DE" stroke="#263238" stroke-linecap="round" stroke-linejoin="round"/>
<path d="M326.621 255.481H324.265L324.452 257.607H326.799L326.621 255.481Z" fill="#0C87DE" stroke="#263238" stroke-linecap="round" stroke-linejoin="round"/>
<path d="M325.941 247.994H323.602L324.452 250.103H325.374L325.941 247.994Z" fill="#0C87DE" stroke="#263238" stroke-linecap="round" stroke-linejoin="round"/>
<path d="M327.253 257.18H323.925L324.104 259.313H327.439L327.253 257.18Z" fill="#0C87DE" stroke="#263238" stroke-linecap="round" stroke-linejoin="round"/>
<path d="M328.103 258.629H323.318L323.472 260.425H328.265L328.103 258.629Z" fill="#0C87DE" stroke="#263238" stroke-linecap="round" stroke-linejoin="round"/>
<path d="M328.823 260.336H322.889L323.027 261.962H328.969L328.823 260.336Z" fill="#0C87DE" stroke="#263238" stroke-linecap="round" stroke-linejoin="round"/>
<path d="M324.703 244.009H324.168L325.148 255.457H325.674L324.703 244.009Z" fill="#0C87DE" stroke="#263238" stroke-linecap="round" stroke-linejoin="round"/>
<path d="M320.914 301.073H309.904L308.69 284.697H319.594L320.914 301.073Z" fill="#0C87DE" stroke="#263238" stroke-linecap="round" stroke-linejoin="round"/>
<path d="M322.638 322.495H311.483L310.244 305.71H321.286L322.638 322.495Z" fill="#0C87DE" stroke="#263238" stroke-linecap="round" stroke-linejoin="round"/>
<path d="M324.403 344.474H313.11L311.839 327.253H323.019L324.403 344.474Z" fill="#0C87DE" stroke="#263238" stroke-linecap="round" stroke-linejoin="round"/>
<path d="M363.14 348.306L355.562 261.012H350.786L358.112 348.306H363.14Z" fill="#0C87DE" stroke="#263238" stroke-linecap="round" stroke-linejoin="round"/>
<path d="M353.903 255.481H351.555L351.733 257.607H354.089L353.903 255.481Z" fill="#0C87DE" stroke="#263238" stroke-linecap="round" stroke-linejoin="round"/>
<path d="M353.231 247.994H350.891L351.741 250.103H352.656L353.231 247.994Z" fill="#0C87DE" stroke="#263238" stroke-linecap="round" stroke-linejoin="round"/>
<path d="M354.542 257.18H351.215L351.393 259.313H354.721L354.542 257.18Z" fill="#0C87DE" stroke="#263238" stroke-linecap="round" stroke-linejoin="round"/>
<path d="M355.392 258.629H350.608L350.754 260.425H355.554L355.392 258.629Z" fill="#0C87DE" stroke="#263238" stroke-linecap="round" stroke-linejoin="round"/>
<path d="M356.113 260.336H350.179L350.317 261.962H356.251L356.113 260.336Z" fill="#0C87DE" stroke="#263238" stroke-linecap="round" stroke-linejoin="round"/>
<path d="M351.984 244.009H351.458L352.43 255.457H352.964L351.984 244.009Z" fill="#0C87DE" stroke="#263238" stroke-linecap="round" stroke-linejoin="round"/>
<path d="M348.204 301.073H337.194L335.98 284.697H346.884L348.204 301.073Z" fill="#0C87DE" stroke="#263238" stroke-linecap="round" stroke-linejoin="round"/>
<path d="M349.92 322.495H338.773L337.534 305.71H348.576L349.92 322.495Z" fill="#0C87DE" stroke="#263238" stroke-linecap="round" stroke-linejoin="round"/>
<path d="M351.693 344.474H340.4L339.129 327.253H350.309L351.693 344.474Z" fill="#0C87DE" stroke="#263238" stroke-linecap="round" stroke-linejoin="round"/>
<path d="M112.205 302.345L107.17 304.277L116.828 291.098C117.033 290.239 117.219 289.361 117.386 288.465L118.487 277.001C118.487 277.001 113.063 281.566 112.383 281.727C111.703 281.888 116.981 266.237 118.277 262.357C118.139 259.45 117.961 256.375 117.734 253.187L111.088 256.125L116.455 248.88L115.646 233.511L112.221 234.727L115.111 227.481C114.391 222.135 113.557 216.846 112.618 211.822L109.898 204.182L107.939 210.623L108.7 195.053C105.64 184.708 101.892 177.695 97.4715 177.422C92.1366 177.084 86.5426 186.616 81.4749 200.084L80.8029 208.94L79.9934 204.223C77.3381 211.822 74.8609 220.396 72.7075 229.011L73.5737 232.384L72.0517 231.619C70.7322 236.989 69.526 242.343 68.4736 247.455L72.0113 253.726L67.7288 251.158C66.7411 256.142 65.9154 260.819 65.3001 265.03C66.4821 271.156 67.9474 279.126 67.5507 278.973C66.2353 277.941 65.0086 276.802 63.8834 275.568C63.8349 276.131 63.7863 276.687 63.7539 277.178C63.4072 282.483 63.7637 287.81 64.8144 293.022L69.785 301.974L66.903 300.429C71.0965 311.852 78.9896 319.694 88.4612 320.282C98.0543 320.877 106.959 313.889 112.545 302.852L112.205 302.345Z" fill="#0C87DE"/>
<path d="M85.385 273.08L89.3356 279.183L87.4575 296.991L82.6488 293.296L87.0689 300.678L82.8835 348.306H88.267L91.408 287.322L106.368 280.294L97.9087 282.822L99.884 277.975L95.561 283.522L91.5295 284.73L92.2661 268.459L107.818 250.369L99.6411 257.55L101.276 252.301L97.1153 259.764L92.4766 263.838L93.6262 238.414L89.7404 275.359L77.0224 260.167L83.8712 270.737L76.8686 269.522L85.385 273.08Z" fill="#263238"/>
<path d="M108.643 239.428C108.764 240.975 108.267 242.506 107.259 243.689C106.251 244.873 104.813 245.613 103.26 245.748C103.147 244.204 103.648 242.677 104.654 241.495C105.661 240.314 107.093 239.572 108.643 239.428Z" fill="white"/>
<path d="M116.156 251.416C116.273 252.961 115.774 254.49 114.766 255.673C113.759 256.855 112.324 257.596 110.772 257.736C110.66 256.191 111.16 254.664 112.167 253.483C113.173 252.301 114.605 251.559 116.156 251.416Z" fill="white"/>
<path d="M114.747 273.829C114.332 275.323 113.343 276.595 111.994 277.372C110.645 278.149 109.044 278.368 107.534 277.983C107.95 276.489 108.938 275.217 110.287 274.44C111.636 273.663 113.237 273.444 114.747 273.829Z" fill="white"/>
<path d="M69.5503 271.019C69.7734 272.554 70.5946 273.941 71.8365 274.879C73.0784 275.817 74.6416 276.233 76.1886 276.035C75.9615 274.502 75.1393 273.118 73.8984 272.18C72.6575 271.243 71.0966 270.826 69.5503 271.019Z" fill="white"/>
<path d="M105.826 263.943C105.941 265.488 105.441 267.017 104.434 268.201C103.428 269.384 101.994 270.127 100.442 270.271C100.323 268.724 100.821 267.193 101.829 266.008C102.836 264.824 104.272 264.082 105.826 263.943Z" fill="white"/>
<path d="M106.02 226.708C106.133 228.253 105.632 229.779 104.626 230.961C103.619 232.142 102.187 232.885 100.637 233.028C100.52 231.483 101.019 229.954 102.026 228.771C103.034 227.589 104.468 226.848 106.02 226.708Z" fill="white"/>
<path d="M100.515 235.942C100.63 237.488 100.131 239.017 99.1239 240.2C98.1172 241.383 96.6839 242.127 95.1319 242.27C95.0171 240.724 95.5167 239.195 96.5234 238.012C97.5301 236.829 98.9635 236.086 100.515 235.942Z" fill="white"/>
<path d="M112.594 229.719C112.711 231.265 112.212 232.794 111.204 233.976C110.197 235.159 108.762 235.9 107.21 236.039C107.098 234.495 107.598 232.968 108.605 231.786C109.611 230.605 111.043 229.863 112.594 229.719Z" fill="white"/>
<path d="M74.7638 227.368C74.4579 228.887 74.7631 230.465 75.6137 231.762C76.4643 233.06 77.7926 233.974 79.3134 234.308C79.6193 232.789 79.3141 231.212 78.4635 229.914C77.6129 228.617 76.2846 227.703 74.7638 227.368Z" fill="white"/>
<path d="M107.817 215.107C107.932 216.653 107.433 218.182 106.426 219.365C105.419 220.548 103.986 221.292 102.434 221.435C102.319 219.889 102.819 218.36 103.825 217.177C104.832 215.994 106.266 215.25 107.817 215.107Z" fill="white"/>
<path d="M106.182 202.572C106.686 204.038 106.59 205.643 105.914 207.039C105.239 208.436 104.038 209.512 102.572 210.035C102.072 208.569 102.17 206.966 102.845 205.571C103.52 204.176 104.718 203.099 106.182 202.572Z" fill="white"/>
<path d="M89.1169 198.281C90.4789 199.034 91.4886 200.289 91.9278 201.776C92.3671 203.262 92.2007 204.861 91.4646 206.227C90.1026 205.474 89.0929 204.219 88.6537 202.732C88.2144 201.246 88.3808 199.647 89.1169 198.281Z" fill="white"/>
<path d="M96.2653 213.577C97.2198 214.804 97.6504 216.355 97.4641 217.894C97.2777 219.434 96.4894 220.839 95.2696 221.805C94.3192 220.577 93.891 219.028 94.0772 217.489C94.2634 215.951 95.049 214.546 96.2653 213.577Z" fill="white"/>
<path d="M97.2043 191.494C98.1527 192.723 98.5795 194.272 98.3934 195.81C98.2073 197.348 97.423 198.752 96.2086 199.722C95.2541 198.496 94.8234 196.945 95.0098 195.405C95.1961 193.865 95.9845 192.461 97.2043 191.494Z" fill="white"/>
<path d="M76.1723 237.408C75.8663 238.927 76.1712 240.506 77.0217 241.805C77.8722 243.103 79.2005 244.019 80.722 244.355C81.0323 242.835 80.7292 241.255 79.878 239.955C79.0268 238.655 77.6959 237.74 76.1723 237.408Z" fill="white"/>
<path d="M70.6351 250.691C70.3249 252.21 70.6282 253.79 71.4796 255.088C72.3309 256.387 73.6618 257.3 75.1847 257.631C75.4906 256.112 75.1854 254.535 74.3348 253.237C73.4842 251.94 72.1559 251.026 70.6351 250.691Z" fill="white"/>
<path d="M82.7783 256.391C82.469 257.915 82.7767 259.498 83.6346 260.798C84.4926 262.097 85.8314 263.007 87.3603 263.331C87.6661 261.812 87.361 260.235 86.5104 258.937C85.6597 257.64 84.3314 256.726 82.8106 256.391H82.7783Z" fill="white"/>
<path d="M87.3603 237.794C86.627 239.161 86.463 240.76 86.9036 242.246C87.3442 243.733 88.3542 244.987 89.7161 245.74C90.4515 244.373 90.6167 242.774 90.1759 241.287C89.7351 239.8 88.7237 238.545 87.3603 237.794Z" fill="white"/>
<path d="M75.4033 287.29C76.9499 287.464 78.5037 287.03 79.7333 286.081C80.9629 285.132 81.7709 283.743 81.9849 282.21C80.4367 282.027 78.8784 282.457 77.6469 283.408C76.4153 284.359 75.6093 285.753 75.4033 287.29Z" fill="white"/>
<path d="M99.7625 286.034C100.032 287.564 100.895 288.927 102.165 289.83C103.436 290.734 105.012 291.105 106.555 290.864C106.289 289.333 105.427 287.967 104.156 287.063C102.884 286.158 101.306 285.789 99.7625 286.034Z" fill="white"/>
<path d="M82.1226 225.219C81.8124 226.738 82.1157 228.317 82.967 229.616C83.8184 230.915 85.1493 231.828 86.6722 232.158C86.9781 230.64 86.6729 229.062 85.8223 227.765C84.9717 226.467 83.6434 225.553 82.1226 225.219Z" fill="white"/>
<path d="M82.7702 214.189C82.4641 215.709 82.769 217.287 83.6195 218.586C84.47 219.885 85.7984 220.801 87.3198 221.137C87.628 219.617 87.324 218.038 86.4731 216.738C85.6223 215.439 84.2926 214.524 82.7702 214.189Z" fill="white"/>
<path d="M50.9307 293.344L47.8788 294.511L53.7318 286.525C53.8613 286.002 53.9746 285.462 54.0718 284.915L54.7437 277.959C53.5632 278.983 52.3253 279.94 51.036 280.825C50.6798 280.914 53.8289 271.43 54.6142 269.071C54.5332 267.308 54.4199 265.448 54.2823 263.516L50.2345 265.295L53.4727 260.916L52.9789 251.593L50.8984 252.334L52.647 247.922C52.2098 244.701 51.7079 241.481 51.1412 238.422L49.5221 233.793L48.3078 237.73L48.7693 228.286C46.9154 222.015 44.6406 217.756 41.961 217.595C38.7228 217.393 35.3308 223.174 32.2464 231.337L31.8336 236.707L31.3317 233.841C29.7126 238.454 28.2149 243.655 26.8954 248.88L27.4216 250.925L26.4987 250.458C25.6891 253.718 24.9605 256.963 24.321 260.062L26.4744 263.87L23.8758 262.308C23.2767 265.335 22.7748 268.185 22.3862 270.721C23.1067 274.441 24.0053 279.271 23.7462 279.183C22.9745 278.548 22.2545 277.853 21.5928 277.106C21.5928 277.452 21.5362 277.79 21.52 278.104C21.3191 281.299 21.5395 284.506 22.1757 287.644L25.1953 293.078L23.4062 292.177C25.9563 299.1 30.7407 303.858 36.4885 304.212C42.2362 304.567 47.7088 300.34 51.0603 293.642L50.9307 293.344Z" fill="#0C87DE"/>
<path d="M47.3687 279.972L42.2362 281.501L43.4343 278.563L40.8114 281.928L38.3666 282.661L38.8118 272.79L48.2511 261.817L43.2886 266.173L44.2763 262.993L41.7505 267.517L38.9414 269.989L39.6376 254.572L37.2818 276.977L29.5668 267.759L33.7198 274.175L29.4697 273.434L34.6427 275.6L37.0308 279.295L35.8975 290.099L32.9831 287.853L35.6627 292.337L30.7569 348.04L34.9908 348.306L38.2937 284.23L47.3687 279.972Z" fill="#263238"/>
<path d="M48.7449 255.184C48.8171 256.117 48.5184 257.041 47.9129 257.757C47.3075 258.474 46.4435 258.926 45.5068 259.016C45.4367 258.083 45.7362 257.16 46.3412 256.444C46.9463 255.728 47.809 255.275 48.7449 255.184Z" fill="white"/>
<path d="M53.3027 262.469C53.3749 263.403 53.0762 264.327 52.4707 265.043C51.8652 265.76 51.0013 266.212 50.0645 266.302C49.9945 265.369 50.294 264.446 50.899 263.73C51.5041 263.014 52.3668 262.561 53.3027 262.469Z" fill="white"/>
<path d="M52.4446 276.051C52.194 276.957 51.5953 277.729 50.7775 278.201C49.9597 278.672 48.9884 278.805 48.073 278.571C48.3236 277.664 48.9223 276.892 49.7401 276.421C50.5578 275.95 51.5292 275.817 52.4446 276.051Z" fill="white"/>
<path d="M25.0253 274.344C25.216 275.255 25.7024 276.078 26.4097 276.687C27.1879 277.203 28.1155 277.449 29.0488 277.387C28.8576 276.475 28.368 275.651 27.6564 275.045C26.8809 274.529 25.956 274.283 25.0253 274.344Z" fill="white"/>
<path d="M47.0369 270.053C47.109 270.986 46.8103 271.91 46.2048 272.627C45.5994 273.344 44.7355 273.795 43.7987 273.885C43.7328 272.954 44.0338 272.033 44.6381 271.318C45.2423 270.603 46.1025 270.149 47.0369 270.053Z" fill="white"/>
<path d="M47.1583 247.471C47.2242 248.403 46.9232 249.323 46.3189 250.039C45.7146 250.754 44.8544 251.207 43.9201 251.303C43.8479 250.37 44.1466 249.446 44.7521 248.729C45.3576 248.013 46.2215 247.561 47.1583 247.471Z" fill="white"/>
<path d="M43.8149 253.066C43.8872 254 43.5887 254.925 42.9834 255.643C42.3781 256.361 41.5142 256.814 40.5767 256.906C40.5044 255.972 40.8029 255.047 41.4082 254.329C42.0135 253.612 42.8774 253.158 43.8149 253.066Z" fill="white"/>
<path d="M51.1412 249.29C51.2135 250.224 50.915 251.149 50.3097 251.867C49.7045 252.585 48.8405 253.039 47.9031 253.131C47.8308 252.197 48.1292 251.271 48.7345 250.554C49.3398 249.836 50.2038 249.382 51.1412 249.29Z" fill="white"/>
<path d="M28.1988 247.873C28.0091 248.794 28.1928 249.752 28.7097 250.539C29.2267 251.326 30.0351 251.879 30.9593 252.076C31.1446 251.155 30.9591 250.199 30.4429 249.413C29.9266 248.628 29.1208 248.075 28.1988 247.873Z" fill="white"/>
<path d="M48.2431 240.435C48.3153 241.368 48.0165 242.292 47.4111 243.008C46.8056 243.725 45.9417 244.177 45.0049 244.267C44.9348 243.334 45.2343 242.411 45.8394 241.695C46.4444 240.979 47.3071 240.527 48.2431 240.435Z" fill="white"/>
<path d="M47.2554 232.827C47.5619 233.717 47.5035 234.692 47.093 235.54C46.6824 236.388 45.9527 237.042 45.0616 237.359C44.7595 236.468 44.8199 235.495 45.2299 234.648C45.6399 233.801 46.3669 233.148 47.2554 232.827Z" fill="white"/>
<path d="M36.9014 230.218C37.7314 230.674 38.3469 231.437 38.6138 232.342C38.8806 233.246 38.7773 234.219 38.3262 235.049C37.5008 234.589 36.8895 233.825 36.6231 232.922C36.3568 232.02 36.4567 231.049 36.9014 230.218Z" fill="white"/>
<path d="M41.2162 239.501C41.7418 240.272 41.9952 241.195 41.9367 242.125C41.7715 243.039 41.3043 243.872 40.6091 244.492C40.0841 243.723 39.8307 242.803 39.8886 241.876C40.0579 240.961 40.5243 240.127 41.2162 239.501Z" fill="white"/>
<path d="M41.8071 226.112C42.3831 226.858 42.6422 227.798 42.5287 228.731C42.4151 229.665 41.9381 230.517 41.2 231.104C40.624 230.358 40.3649 229.418 40.4784 228.485C40.592 227.552 41.069 226.7 41.8071 226.112Z" fill="white"/>
<path d="M29.0731 253.96C28.8853 254.88 29.0685 255.837 29.5833 256.625C30.0981 257.413 30.9033 257.967 31.8256 258.17C32.0134 257.25 31.8302 256.293 31.3154 255.505C30.8006 254.718 29.9953 254.163 29.0731 253.96Z" fill="white"/>
<path d="M25.6891 262.019C25.5039 262.939 25.6893 263.895 26.2056 264.681C26.7218 265.467 27.5276 266.02 28.4497 266.221C28.6393 265.3 28.4557 264.342 27.9387 263.555C27.4218 262.768 26.6133 262.216 25.6891 262.019Z" fill="white"/>
<path d="M33.056 265.472C32.8684 266.394 33.0527 267.352 33.5692 268.14C34.0856 268.928 34.8928 269.482 35.8166 269.683C35.9425 268.762 35.7605 267.826 35.2984 267.018C34.7443 266.27 33.9553 265.726 33.056 265.472Z" fill="white"/>
<path d="M35.8328 254.193C35.4469 255.041 35.3502 255.991 35.5575 256.898C35.8773 257.772 36.4777 258.516 37.2657 259.016C37.714 258.185 37.8149 257.212 37.5467 256.308C37.2785 255.404 36.6627 254.641 35.8328 254.185V254.193Z" fill="white"/>
<path d="M28.5873 284.214C29.5256 284.32 30.4681 284.056 31.2138 283.48C31.9595 282.904 32.4492 282.061 32.5784 281.131C31.639 281.019 30.6931 281.28 29.9459 281.857C29.1988 282.435 28.7106 283.281 28.5873 284.214Z" fill="white"/>
<path d="M43.3615 283.458C43.5259 284.384 44.0503 285.209 44.8213 285.755C45.5923 286.3 46.548 286.522 47.4821 286.372C47.3138 285.447 46.7886 284.625 46.0186 284.08C45.2486 283.536 44.295 283.312 43.3615 283.458Z" fill="white"/>
<path d="M32.6594 246.585C32.5285 247.505 32.7078 248.442 33.1694 249.25C33.7303 249.995 34.5205 250.538 35.4199 250.796C35.6075 249.874 35.4232 248.916 34.9068 248.128C34.3903 247.341 33.5831 246.786 32.6594 246.585Z" fill="white"/>
<path d="M33.056 239.879C32.8681 240.8 33.0513 241.757 33.5662 242.544C34.081 243.332 34.8862 243.887 35.8084 244.09C35.9963 243.169 35.8131 242.212 35.2983 241.424C34.7835 240.637 33.9782 240.082 33.056 239.879Z" fill="white"/>
<path d="M267.249 275.294L271.345 276.864L263.485 266.132C263.315 265.424 263.161 264.707 263.023 263.991L262.133 254.636C262.133 254.636 266.545 258.355 267.103 258.492C267.662 258.629 263.363 245.869 262.303 242.705C262.416 240.338 262.562 237.834 262.748 235.242L268.156 237.657L263.784 231.772L264.456 219.253L267.249 220.243L264.893 214.318C265.484 209.963 266.164 205.656 266.925 201.558L269.135 195.343L270.755 200.559L270.131 187.88C272.625 179.45 275.677 173.734 279.279 173.517C283.626 173.243 288.184 181.012 292.313 191.977L292.863 199.223L293.535 195.375C295.697 201.574 297.72 208.554 299.501 215.574L298.789 218.319L300.028 217.699C301.104 222.071 302.084 226.426 302.95 230.581L300.06 235.693L303.557 233.6C304.367 237.625 305.023 241.489 305.549 244.871C304.585 249.862 303.387 256.359 303.719 256.23C304.759 255.384 305.728 254.455 306.617 253.453C306.617 253.911 306.69 254.362 306.714 254.789C306.993 259.102 306.705 263.432 305.856 267.67L301.809 274.956L304.164 273.7C300.74 283.007 294.312 289.399 286.597 289.874C278.882 290.349 271.524 284.673 266.974 275.681L267.249 275.294Z" fill="#0C87DE"/>
<path d="M283.497 247.688L284.096 260.94L280.809 259.958L277.288 255.441L278.899 259.386L272.001 257.325L284.193 263.057L288.589 348.306H294.272L287.723 273.934L291.325 267.92L287.407 270.931L285.885 256.423L289.099 251.456L296.037 248.55L290.337 249.54L295.907 240.926L285.553 253.308L282.38 223.206L283.327 243.921L279.546 240.604L276.154 234.525L277.482 238.792L270.819 232.947L283.497 247.688Z" fill="#263238"/>
<path d="M270.147 224.043C270.128 225.293 270.527 226.514 271.281 227.513C272.147 228.41 273.284 229.001 274.519 229.196C274.609 227.937 274.201 226.693 273.381 225.731C272.561 224.768 271.394 224.162 270.131 224.043H270.147Z" fill="white"/>
<path d="M264.035 233.817C263.945 235.074 264.352 236.317 265.171 237.28C265.989 238.242 267.153 238.849 268.415 238.969C268.505 237.712 268.098 236.469 267.279 235.507C266.461 234.544 265.297 233.938 264.035 233.817Z" fill="white"/>
<path d="M265.177 252.06C265.518 253.275 266.324 254.309 267.423 254.941C268.521 255.573 269.824 255.753 271.054 255.441C270.713 254.226 269.907 253.191 268.808 252.56C267.71 251.928 266.406 251.748 265.177 252.06Z" fill="white"/>
<path d="M302.003 249.806C301.816 251.052 301.147 252.176 300.138 252.939C299.129 253.701 297.861 254.042 296.603 253.887C296.79 252.641 297.459 251.517 298.468 250.754C299.477 249.991 300.745 249.651 302.003 249.806Z" fill="white"/>
<path d="M272.446 244.009C272.356 245.268 272.765 246.511 273.585 247.474C274.405 248.437 275.571 249.043 276.834 249.162C276.924 247.903 276.516 246.659 275.696 245.696C274.876 244.734 273.71 244.128 272.446 244.009Z" fill="white"/>
<path d="M272.285 213.674C272.194 214.933 272.603 216.176 273.423 217.139C274.243 218.102 275.409 218.708 276.672 218.826C276.763 217.568 276.354 216.324 275.534 215.361C274.714 214.398 273.548 213.793 272.285 213.674Z" fill="white"/>
<path d="M276.794 221.193C276.704 222.452 277.112 223.696 277.932 224.659C278.752 225.621 279.918 226.227 281.182 226.346C281.199 225.099 280.801 223.881 280.048 222.884C279.18 221.98 278.036 221.386 276.794 221.193Z" fill="white"/>
<path d="M266.933 216.121C266.843 217.379 267.251 218.621 268.069 219.584C268.887 220.547 270.051 221.153 271.313 221.274C271.403 220.017 270.996 218.774 270.178 217.811C269.359 216.849 268.195 216.242 266.933 216.121Z" fill="white"/>
<path d="M297.753 214.213C297.994 215.448 297.742 216.727 297.049 217.78C296.357 218.832 295.279 219.574 294.045 219.849C293.804 218.614 294.056 217.335 294.749 216.283C295.441 215.23 296.519 214.488 297.753 214.213Z" fill="white"/>
<path d="M270.819 204.222C270.729 205.481 271.138 206.725 271.958 207.688C272.778 208.651 273.944 209.256 275.207 209.375C275.297 208.116 274.889 206.873 274.069 205.91C273.249 204.947 272.082 204.341 270.819 204.222Z" fill="white"/>
<path d="M272.155 194.006C271.748 195.201 271.828 196.507 272.377 197.645C272.927 198.782 273.901 199.661 275.094 200.093C275.5 198.897 275.42 197.591 274.871 196.454C274.322 195.317 273.347 194.438 272.155 194.006Z" fill="white"/>
<path d="M286.055 190.496C284.948 191.114 284.129 192.138 283.772 193.349C283.414 194.56 283.548 195.863 284.144 196.977C285.251 196.359 286.071 195.335 286.428 194.124C286.785 192.912 286.651 191.61 286.055 190.496Z" fill="white"/>
<path d="M280.25 202.975C279.48 203.975 279.133 205.236 279.285 206.488C279.436 207.739 280.073 208.882 281.06 209.673C281.83 208.672 282.177 207.411 282.026 206.16C281.875 204.908 281.237 203.765 280.25 202.975Z" fill="white"/>
<path d="M279.473 184.989C278.703 185.99 278.356 187.251 278.507 188.502C278.659 189.754 279.296 190.897 280.283 191.688C281.053 190.687 281.4 189.426 281.249 188.175C281.097 186.923 280.46 185.78 279.473 184.989Z" fill="white"/>
<path d="M296.603 222.433C296.844 223.668 296.592 224.947 295.9 225.999C295.207 227.052 294.13 227.794 292.896 228.069C292.654 226.834 292.907 225.555 293.599 224.502C294.291 223.45 295.369 222.708 296.603 222.433Z" fill="white"/>
<path d="M301.121 233.213C301.362 234.448 301.109 235.727 300.417 236.779C299.725 237.832 298.647 238.574 297.413 238.849C297.172 237.614 297.424 236.335 298.116 235.282C298.809 234.23 299.886 233.488 301.121 233.213Z" fill="white"/>
<path d="M291.228 237.858C291.469 239.093 291.217 240.372 290.524 241.425C289.832 242.477 288.754 243.219 287.52 243.494C287.279 242.259 287.531 240.98 288.224 239.928C288.916 238.875 289.994 238.133 291.228 237.858Z" fill="white"/>
<path d="M287.488 222.707C288.071 223.818 288.197 225.111 287.838 226.313C287.48 227.515 286.667 228.531 285.569 229.148C285.045 228.014 284.914 226.74 285.197 225.525C285.632 224.363 286.436 223.373 287.488 222.707Z" fill="white"/>
<path d="M297.235 263.025C295.974 263.169 294.706 262.817 293.703 262.044C292.7 261.27 292.041 260.137 291.867 258.887C293.126 258.816 294.373 259.162 295.413 259.869C296.355 260.692 296.995 261.802 297.235 263.025Z" fill="white"/>
<path d="M277.385 262.01C277.159 263.253 276.453 264.358 275.418 265.089C274.383 265.821 273.101 266.12 271.847 265.923C272.073 264.681 272.779 263.575 273.814 262.844C274.849 262.113 276.131 261.814 277.385 262.01Z" fill="white"/>
<path d="M291.754 212.458C291.996 213.692 291.744 214.97 291.054 216.022C290.363 217.074 289.287 217.818 288.054 218.094C287.813 216.86 288.064 215.582 288.755 214.53C289.446 213.478 290.521 212.735 291.754 212.458Z" fill="white"/>
<path d="M291.228 203.474C291.469 204.708 291.217 205.988 290.524 207.04C289.832 208.092 288.754 208.835 287.52 209.109C287.279 207.875 287.531 206.595 288.224 205.543C288.916 204.491 289.994 203.748 291.228 203.474Z" fill="white"/>
<path d="M248.087 217.989H209.569V348.306H248.087V217.989Z" fill="white" stroke="#263238" stroke-linecap="round" stroke-linejoin="round"/>
<path d="M224.052 348.306H192.82C192.779 346.97 192.731 343.902 192.82 338.903C192.973 331.955 195.766 295.373 195.766 295.373L195.459 281.791C195.459 281.791 193.289 285.494 185.526 293.062C177.762 300.63 156.188 315.604 156.188 315.604L155.718 275.463C155.718 275.463 172.176 260.489 172.176 260.03C172.833 255.32 174.585 250.827 177.293 246.907C181.486 241.038 189.873 237.182 189.873 237.182L207.57 230.387L208.031 231.627C208.031 231.627 213.617 242.737 215.171 248.759C216.725 254.781 219.016 261.841 219.016 261.841C219.016 261.841 217.964 277.629 217.81 296.154C217.697 313.02 223.088 343.081 224.052 348.306Z" fill="#263238" stroke="#263238" stroke-linecap="round" stroke-linejoin="round"/>
<path d="M180.579 267.082L178.564 264.804" stroke="#263238" stroke-linecap="round" stroke-linejoin="round"/>
<path d="M194.398 282.717L182.846 269.659" stroke="#263238" stroke-linecap="round" stroke-linejoin="round"/>
<path d="M192.221 279.006L181.826 261.874" stroke="#263238" stroke-linecap="round" stroke-linejoin="round"/>
<path d="M201.506 231.289C201.506 231.289 188.772 235.459 187.226 240.402C185.679 245.346 187.379 260.465 188.772 268.499C190.164 276.534 192.965 282.234 194.366 282.701C195.766 283.168 197.313 280.382 197.936 276.985C198.559 273.587 201.984 243.486 202.745 238.704C203.506 233.922 202.623 230.846 201.506 231.289Z" fill="#B0B0B0" stroke="#263238" stroke-linecap="round" stroke-linejoin="round"/>
<path d="M197.968 232.851C196.774 243.515 196.152 254.235 196.106 264.965C196.106 281.791 195.791 295.373 195.791 295.373C195.791 295.373 192.844 275.922 192.374 263.572C191.905 251.223 192.69 235.169 192.69 235.169C192.69 235.169 196.722 232.698 197.968 232.851Z" fill="#263238" stroke="#263238" stroke-linecap="round" stroke-linejoin="round"/>
<path d="M284.889 249.725C284.889 249.725 295.025 270.657 299.396 276.985C303.768 283.313 303.169 285.478 301.38 285.084C300.409 284.891 299.471 284.561 298.595 284.102C298.595 284.102 308.536 301.089 309.329 307.449C310.123 313.809 311.709 320.483 300.983 326.014C290.256 331.544 281.117 319.501 279.522 317.721C277.927 315.942 275.952 260.223 276.348 254.298C276.745 248.373 282.08 247.149 284.889 249.725Z" fill="#B0B0B0" stroke="#263238" stroke-linecap="round" stroke-linejoin="round"/>
<path d="M298.562 284.102C297.92 283.673 297.434 283.049 297.178 282.322C296.781 281.139 289.625 272.839 287.642 268.491C285.658 264.144 283.464 261.576 282.671 263.943C281.878 266.31 279.295 267.896 279.093 262.172C278.89 256.447 283.667 248.928 284.857 249.725C286.355 250.79 287.635 252.128 288.629 253.67C289.625 255.28 299.364 272.839 301.946 277.581C304.529 282.322 304.925 285.285 303.735 286.275C302.545 287.266 300.157 284.891 298.562 284.102Z" fill="#B0B0B0" stroke="#263238" stroke-linecap="round" stroke-linejoin="round"/>
<path d="M298.562 296.548C298.562 296.548 301.744 312.158 302.74 315.91C303.735 319.662 306.512 320.056 307.508 319.468" stroke="#263238" stroke-linecap="round" stroke-linejoin="round"/>
<path d="M303.136 290.421C303.136 290.421 296.182 288.811 296.781 291.806C297.38 294.801 297.971 298.722 299.558 299.309C301.145 299.897 306.512 297.538 306.512 297.538C306.512 297.538 305.128 291.806 303.136 290.421Z" fill="#B0B0B0" stroke="#263238" stroke-linecap="round" stroke-linejoin="round"/>
<path d="M285.739 262.88V277.484C285.739 279.988 285.529 284.778 285.529 284.778L295.308 348.306H243.7C243.092 345.029 239.652 326.464 236.244 307.722C232.463 287.072 236.244 278.74 236.244 278.74C236.244 278.74 240.016 253.082 240.648 249.331C241.279 245.579 241.692 230.347 241.692 230.347C241.692 230.347 244.21 214.495 244.42 213.038C244.631 211.581 248.403 213.457 248.403 213.457C248.403 213.457 259.939 213.666 262.667 212.829C265.395 211.991 271.896 206.783 277.352 207.998C282.809 209.214 289.309 213.215 289.309 213.215L302.521 206.541C302.521 206.541 298.538 211.13 298.749 228.23C298.959 245.329 301.469 245.941 305.873 247.213C307.803 247.806 309.765 248.292 311.75 248.67C311.75 248.67 290.305 250.941 287.156 251.778C284.007 252.615 285.739 252.454 285.739 262.88Z" fill="#263238" stroke="#263238" stroke-linecap="round" stroke-linejoin="round"/>
<path d="M286.581 215.534C286.581 215.534 281.125 215.534 276.3 225.75" stroke="#263238" stroke-linecap="round" stroke-linejoin="round"/>
<path d="M273.215 233.237C273.175 233.922 273.159 234.63 273.159 235.347" stroke="#263238" stroke-linecap="round" stroke-linejoin="round"/>
<path d="M276.089 220.952C274.66 224.239 273.748 227.726 273.385 231.289" stroke="#263238" stroke-linecap="round" stroke-linejoin="round"/>
<path d="M281.246 284.931C278.91 280.424 276.981 275.72 275.482 270.874" stroke="#263238" stroke-linecap="round" stroke-linejoin="round"/>
<path d="M240.478 290.478C240.478 290.478 250.84 289.52 254.709 287.958C258.579 286.396 263.614 282.975 265.598 282.419C267.581 281.864 268.836 284.665 268.957 285.583C269.079 286.501 272.066 291.734 271.184 293.4C270.301 295.067 262.554 307.086 259.996 307.843C257.438 308.6 242.145 306.45 241.141 305.951C240.138 305.452 239.377 303.061 239.223 301.829C239.069 300.598 238.745 291.669 238.745 291.669C238.745 291.669 238.162 290.768 240.478 290.478Z" fill="#B0B0B0" stroke="#263238" stroke-linecap="round" stroke-linejoin="round"/>
<path d="M264.553 211.162C263.547 220.862 263.338 230.628 263.93 240.362C264.974 255.167 267.282 261.012 266.027 263.516C264.772 266.02 260.149 266.02 257.632 263.516C255.114 261.012 249.666 258.09 248.403 242.238C247.14 226.386 250.71 213.457 251.552 213.038C252.394 212.619 261.623 209.48 264.553 211.162Z" fill="#B0B0B0" stroke="#263238" stroke-linecap="round" stroke-linejoin="round"/>
<path d="M260.255 210.47C260.255 210.47 257.292 241.28 261.493 255.675C265.695 270.069 295.599 300.839 296.02 302.095C296.441 303.351 293.082 303.134 291.616 301.886C290.151 300.638 272.187 287.121 262.36 272.307C252.532 257.494 252.985 245.064 252.815 233.052C252.668 226.136 253.408 219.229 255.017 212.499C255.017 212.499 255.308 209.6 260.255 210.47Z" fill="#263238" stroke="#263238" stroke-linecap="round" stroke-linejoin="round"/>
<path d="M381.597 191.599L322.007 197.758C322.007 197.758 309.864 197.565 306.512 206.614C303.161 215.663 301.946 226.378 302.934 234.083C303.922 241.787 305.12 243.172 309.297 245.144C313.474 247.117 327.374 245.949 327.374 245.949L378.481 238.132" fill="white"/>
<path d="M381.597 191.599L322.007 197.758C322.007 197.758 309.864 197.565 306.512 206.614C303.161 215.663 301.946 226.378 302.934 234.083C303.922 241.787 305.12 243.172 309.297 245.144C313.474 247.117 327.374 245.949 327.374 245.949L378.481 238.132" stroke="#263238" stroke-linecap="round" stroke-linejoin="round"/>
<path d="M322.007 197.758C322.007 197.758 311.28 197.758 306.714 210.011C302.149 222.264 304.326 233.358 305.719 239.05C307.111 244.742 320.42 246.167 323.003 246.167C324.462 246.173 325.921 246.106 327.374 245.965C326.419 247.706 325.138 249.25 323.602 250.514C321.416 252.124 308.698 251.319 302.74 249.918C296.781 248.517 290.596 239.452 290.022 231.74C289.447 224.027 294.596 210.003 299.955 205.068C305.314 200.133 317.271 196.574 322.007 197.758Z" fill="#8C8C8C" stroke="#263238" stroke-linecap="round" stroke-linejoin="round"/>
<path d="M258.187 304.432C259.17 304.135 259.725 303.1 259.426 302.122C259.127 301.143 258.087 300.592 257.103 300.889C256.119 301.187 255.564 302.221 255.863 303.2C256.163 304.178 257.203 304.73 258.187 304.432Z" fill="white" stroke="#263238" stroke-linecap="round" stroke-linejoin="round"/>
<path d="M257.551 241.916C257.551 241.916 250.953 237.834 249.051 236.522C247.148 235.21 244.946 234.485 244.501 234.775C243.96 235.491 243.518 236.276 243.19 237.11C243.19 237.11 242.016 232.44 242.599 230.403C243.181 228.367 245.238 229.824 247.456 230.983C249.696 232.342 251.679 234.08 253.317 236.119C254.62 237.73 257.551 241.916 257.551 241.916Z" fill="#263238" stroke="#263238" stroke-linecap="round" stroke-linejoin="round"/>
<path d="M234.981 202.186C234.981 202.186 238.551 200.93 240.858 202.395C243.165 203.86 251.973 211.573 251.973 211.573C251.973 211.573 251.552 224.502 253.649 230.967C255.746 237.432 259.016 241.497 257.551 241.916C256.086 242.335 249.455 233.471 247.359 232.633C245.262 231.796 243.376 230.758 243.376 231.828C243.376 232.899 245.052 255.602 244.185 259.772C243.319 263.943 235.402 280.398 235.402 280.398C235.402 280.398 239.806 234.509 240.437 225.959C241.069 217.41 234.981 202.186 234.981 202.186Z" fill="#8C8C8C" stroke="#263238" stroke-linecap="round" stroke-linejoin="round"/>
<path d="M237.207 196.945C237.207 196.945 240.534 213.851 240.534 219.012C240.534 224.172 236.414 235.838 228.545 236.723C216.547 238.052 213.544 228.769 211.382 225.122C209.221 221.475 206.525 212.7 206.525 212.7C206.525 212.7 214.022 216.178 218.021 214.189C222.02 212.201 237.207 196.945 237.207 196.945Z" fill="white" stroke="#263238" stroke-linecap="round" stroke-linejoin="round"/>
<path d="M222.959 219.462L211.382 225.098C209.454 221.083 207.831 216.931 206.525 212.676L222.959 219.462Z" fill="#263238" stroke="#263238" stroke-linecap="round" stroke-linejoin="round"/>
<path d="M219.041 261.833C219.041 261.833 209.537 245.595 207.707 245.265C205.878 244.935 201.231 247.906 201.231 246.754C201.231 245.603 204.874 237.512 205.376 236.852C205.878 236.192 206.703 236.522 208.031 238.671C209.359 240.821 219.041 261.833 219.041 261.833Z" fill="#263238" stroke="#263238" stroke-linecap="round" stroke-linejoin="round"/>
<path d="M219.041 261.833C219.041 261.833 212.119 249.532 209.602 245.981C208.145 243.957 206.881 241.8 205.829 239.541C205.829 239.541 201.636 248.3 199.749 248.3C197.863 248.3 197.863 249.347 199.328 244.13C200.794 238.913 201.458 227.787 203.554 220.694C205.651 213.602 207.359 209.995 208.824 210.615C210.29 211.235 209.189 214.302 211.909 228.487C214.629 242.673 217.656 249.62 218.498 253.38C219.014 256.167 219.196 259.004 219.041 261.833Z" fill="#8C8C8C" stroke="#263238" stroke-linecap="round" stroke-linejoin="round"/>
<path d="M211.14 224.365C211.14 224.365 209.658 220.815 208.306 219.607C206.954 218.4 204.906 216.91 204.906 216.91L206.525 212.684L209.545 217.989C209.545 217.989 211.544 221.274 211.14 224.365Z" fill="#263238" stroke="#263238" stroke-linecap="round" stroke-linejoin="round"/>
<path d="M186.934 180.239C186.934 180.239 183.696 178.911 183.364 182.759C183.032 186.608 185.599 188.974 187.234 190.158C188.608 190.999 190.117 191.601 191.694 191.937L190.075 183.202L186.934 180.239Z" fill="white" stroke="#263238" stroke-linecap="round" stroke-linejoin="round"/>
<path d="M187.388 159.517C187.388 159.517 190.512 186.889 191.702 194.135C192.892 201.381 209.715 218.287 211.204 219.446C212.694 220.606 218.644 220.485 222.959 219.446C227.274 218.408 234.293 205.092 236.357 202.427C238.421 199.762 239.595 198.136 239.781 194.578C239.967 191.019 240.672 185.408 240.672 185.408C240.672 185.408 244.096 184.514 246.921 179.772C249.747 175.031 249.302 167.342 245.132 166.159C240.963 164.975 240.372 168.228 239.466 171.794C238.559 175.361 237.846 163.212 237.531 161.586C237.215 159.96 237.377 155.814 223.987 153.149C210.597 150.484 203.295 151.667 201.069 152.263C198.843 152.859 188.553 157.15 187.388 159.517Z" fill="white" stroke="#263238" stroke-linecap="round" stroke-linejoin="round"/>
<path d="M237.547 150.637C237.547 150.637 245.432 155.524 244.388 159.67C243.343 163.816 238.883 169.733 239.482 171.802C240.081 173.871 239.927 177.438 239.037 176.689C238.146 175.94 234.268 161.296 234.268 161.296C234.268 161.296 229.508 158.333 217.6 156.707C205.691 155.081 203.311 156.119 203.311 156.119C203.311 156.119 217.754 159.34 215.366 160.555C212.977 161.771 211.204 163.663 199.175 164.581C187.145 165.499 189.363 163.365 189.363 163.365C189.363 163.365 189.662 169.588 189.662 171.955C189.662 174.322 190.407 185.271 190.407 185.271C189.737 184.937 189.131 184.487 188.618 183.943C187.966 182.76 187.424 181.52 186.999 180.239C186.999 180.239 180.45 174.322 180.005 170.321C179.559 166.32 185.064 160.998 185.064 160.998C183.744 158.127 183.378 154.912 184.02 151.82C185.064 146.499 192.804 137.023 200.397 134.214C207.991 131.404 212.84 129.327 225.792 135.244C238.745 141.161 241.57 147.827 240.364 149.156C239.628 149.961 238.631 150.485 237.547 150.637Z" fill="#263238" stroke="#263238" stroke-linecap="round" stroke-linejoin="round"/>
<path d="M218.62 177.349C219.638 176.344 220.938 175.667 222.349 175.409C223.76 175.15 225.217 175.321 226.529 175.9" fill="white"/>
<path d="M218.62 177.349C219.638 176.344 220.938 175.667 222.349 175.409C223.76 175.15 225.217 175.321 226.529 175.9" stroke="#263238" stroke-linecap="round" stroke-linejoin="round"/>
<path d="M202.567 181.793C202.567 181.793 198.43 180.344 196.001 183.009L202.567 181.793Z" fill="white"/>
<path d="M202.567 181.793C202.567 181.793 198.43 180.344 196.001 183.009" stroke="#263238" stroke-linecap="round" stroke-linejoin="round"/>
<path d="M222.141 176.834C222.141 177.152 222.236 177.464 222.414 177.728C222.592 177.993 222.845 178.2 223.141 178.322C223.437 178.443 223.762 178.475 224.076 178.413C224.39 178.351 224.679 178.198 224.905 177.972C225.132 177.747 225.286 177.46 225.348 177.148C225.411 176.836 225.379 176.512 225.256 176.218C225.134 175.924 224.926 175.672 224.66 175.495C224.394 175.318 224.081 175.224 223.76 175.224C223.331 175.224 222.919 175.393 222.615 175.695C222.312 175.997 222.141 176.407 222.141 176.834Z" fill="#263238" stroke="#263238" stroke-linecap="round" stroke-linejoin="round"/>
<path d="M198.98 182.824C198.98 183.142 199.075 183.453 199.253 183.718C199.431 183.983 199.684 184.189 199.98 184.311C200.276 184.433 200.601 184.465 200.915 184.403C201.229 184.341 201.518 184.187 201.744 183.962C201.971 183.737 202.125 183.45 202.187 183.138C202.25 182.825 202.218 182.502 202.095 182.208C201.973 181.913 201.765 181.662 201.499 181.485C201.233 181.308 200.92 181.214 200.599 181.214C200.17 181.214 199.758 181.383 199.455 181.685C199.151 181.987 198.98 182.397 198.98 182.824Z" fill="#263238" stroke="#263238" stroke-linecap="round" stroke-linejoin="round"/>
<path d="M229.443 168.735C229.443 168.735 221.542 166.32 215.212 170.546L229.443 168.735Z" fill="white"/>
<path d="M229.443 168.735C229.443 168.735 221.542 166.32 215.212 170.546" stroke="#263238" stroke-width="3" stroke-linecap="round" stroke-linejoin="round"/>
<path d="M201.109 174.419C201.109 174.419 195.394 173.332 191.986 177.808L201.109 174.419Z" fill="white"/>
<path d="M201.109 174.419C201.109 174.419 195.394 173.332 191.986 177.808" stroke="#263238" stroke-width="3" stroke-linecap="round" stroke-linejoin="round"/>
<path d="M218.741 193.652C218.741 193.652 215.212 197.395 212.904 197.758C210.597 198.12 207.432 196.148 207.189 195.705" fill="white"/>
<path d="M218.741 193.652C218.741 193.652 215.212 197.395 212.904 197.758C210.597 198.12 207.432 196.148 207.189 195.705" stroke="#263238" stroke-linecap="round" stroke-linejoin="round"/>
<path d="M225.792 195.463C225.792 195.463 219.705 201.509 214.961 202.475C210.217 203.442 203.044 201.268 203.044 201.268C203.044 201.268 212.046 209.013 215.187 209.254C216.375 209.394 217.578 209.196 218.656 208.681C219.734 208.166 220.642 207.357 221.275 206.348C222.554 204.657 225.792 195.463 225.792 195.463Z" fill="white" stroke="#263238" stroke-linecap="round" stroke-linejoin="round"/>
<path d="M232.73 169.943C232.73 169.943 234.187 179.257 232.973 180.344C231.759 181.431 223.607 183.854 219.956 183.975C216.305 184.096 215.212 183.25 214.726 182.647C214.24 182.043 212.176 175.626 212.419 174.781C212.662 173.936 224.092 169.822 232.73 169.943Z" stroke="#263238" stroke-linecap="round" stroke-linejoin="round"/>
<path d="M185.655 181.012C185.655 181.012 188.456 190.021 190.027 190.464C191.597 190.907 199.992 189.53 203.319 188.049C206.647 186.567 207.262 185.327 207.432 184.571C207.602 183.814 206.622 177.148 206.04 176.52C205.457 175.892 193.362 177.132 185.655 181.012Z" stroke="#263238" stroke-linecap="round" stroke-linejoin="round"/>
<path d="M232.73 169.943L239.012 169.967" stroke="#263238" stroke-linecap="round" stroke-linejoin="round"/>
<path d="M212.419 174.781C212.419 174.781 208.509 174.378 206.04 176.496" stroke="#263238" stroke-linecap="round" stroke-linejoin="round"/>
<path d="M212.613 176.431C212.613 176.431 209.059 175.9 206.655 178.098" stroke="#263238" stroke-linecap="round" stroke-linejoin="round"/>
<path d="M159.159 289.665C159.159 289.665 165.368 293.98 165.837 297.844C166.307 301.709 167.853 311.426 165.676 314.823C163.498 318.221 156.212 324.677 140.685 323.003C125.158 321.328 124.85 309.115 125.474 304.631C126.097 300.147 127.182 293.054 129.821 291.355C132.46 289.657 145.34 283.796 159.159 289.665Z" fill="#8C8C8C" stroke="#263238" stroke-linecap="round" stroke-linejoin="round"/>
<path d="M160.883 202.701C160.883 202.701 165.255 195.979 165.255 191.43C165.255 186.881 165.457 184.12 167.837 184.909C170.217 185.698 172.605 191.229 172.411 195.182C172.179 197.999 171.636 200.782 170.792 203.482C170.792 203.482 169.982 202.886 166.623 202.677C164.711 202.561 162.794 202.569 160.883 202.701Z" fill="white" stroke="#263238" stroke-linecap="round" stroke-linejoin="round"/>
<path d="M165.077 200.133C165.077 200.133 183.947 203.49 185.315 204.875C185.953 205.425 186.422 206.143 186.668 206.946C186.914 207.749 186.928 208.605 186.708 209.415C186.435 210.525 185.877 211.546 185.088 212.378C185.531 214.499 185.326 216.702 184.498 218.706C183.105 221.668 183.299 220.678 183.299 220.678C183.299 220.678 183.105 226.603 181.122 227.199C179.138 227.795 178.134 228.181 178.134 228.181C178.134 228.181 178.134 232.529 176.151 233.125C174.168 233.72 169.197 232.923 169.197 232.923C169.197 232.923 165.821 237.271 163.036 237.472C161.109 237.56 159.178 237.427 157.281 237.077C157.281 237.077 160.454 283.9 161.247 288.642C162.041 293.384 164.429 307.416 158.268 311.989C152.108 316.562 142.976 316.731 137.22 313.173C131.464 309.614 129.869 305.863 129.667 298.553C129.465 291.243 140.79 238.857 143.008 234.308C145.226 229.759 157.313 206.646 159.499 203.49C160.131 202.565 160.957 201.786 161.919 201.206C162.882 200.627 163.959 200.261 165.077 200.133Z" fill="white" stroke="#263238" stroke-linecap="round" stroke-linejoin="round"/>
<path d="M185.121 212.378C185.121 212.378 173.399 210.993 171.618 210.599C169.837 210.204 162.875 209.222 162.875 209.222" fill="white"/>
<path d="M185.121 212.378C185.121 212.378 173.399 210.993 171.618 210.599C169.837 210.204 162.875 209.222 162.875 209.222" stroke="#263238" stroke-linecap="round" stroke-linejoin="round"/>
<path d="M183.332 220.678C183.332 220.678 172.605 219.495 169.027 218.899L161.879 217.715" fill="white"/>
<path d="M183.332 220.678C183.332 220.678 172.605 219.495 169.027 218.899L161.879 217.715" stroke="#263238" stroke-linecap="round" stroke-linejoin="round"/>
<path d="M178.167 228.181C178.167 228.181 165.854 226.571 161.676 225.613L178.167 228.181Z" fill="white"/>
<path d="M178.167 228.181C178.167 228.181 165.854 226.571 161.676 225.613" stroke="#263238" stroke-linecap="round" stroke-linejoin="round"/>
<path d="M158.406 241.062C158.406 241.062 155.653 242.946 150.359 242.407C143.3 241.69 140.823 238.261 140.823 238.261L139.624 244.782C139.624 244.782 143.931 249.065 149.962 249.323C152.981 249.387 155.963 248.65 158.6 247.189L158.406 241.062Z" fill="#263238" stroke="#263238" stroke-linecap="round" stroke-linejoin="round"/>
<path d="M195.637 293.521C195.637 293.521 207.335 293.416 208.735 293.36C210.136 293.304 210.994 292.708 210.962 294.592C210.929 296.476 213.026 305.058 212.354 305.782C211.682 306.507 203.392 310.87 202.518 311.313C201.644 311.756 198.932 310.452 198.932 310.452C198.932 310.452 195.337 308.495 195.094 307.908C194.852 307.32 195.637 293.521 195.637 293.521Z" fill="#B0B0B0" stroke="#263238" stroke-linecap="round" stroke-linejoin="round"/>
<path d="M198.592 306.161C198.647 306.523 198.809 306.86 199.057 307.131C199.306 307.401 199.629 307.592 199.986 307.68C200.344 307.768 200.719 307.748 201.066 307.623C201.412 307.499 201.713 307.275 201.932 306.98C202.15 306.686 202.276 306.333 202.292 305.967C202.309 305.601 202.217 305.239 202.027 304.925C201.836 304.612 201.557 304.362 201.224 304.206C200.89 304.05 200.518 303.997 200.154 304.051C199.912 304.088 199.68 304.171 199.47 304.297C199.261 304.423 199.078 304.588 198.933 304.784C198.788 304.98 198.683 305.202 198.625 305.438C198.566 305.675 198.555 305.92 198.592 306.161Z" fill="white" stroke="#263238" stroke-linecap="round" stroke-linejoin="round"/>
<path d="M213.957 263.878C213.987 264.176 214.102 264.458 214.29 264.691C214.478 264.925 214.73 265.099 215.015 265.193C215.301 265.287 215.607 265.296 215.898 265.22C216.189 265.145 216.451 264.987 216.653 264.766C216.855 264.545 216.989 264.27 217.038 263.975C217.086 263.68 217.048 263.377 216.927 263.104C216.806 262.83 216.608 262.597 216.357 262.433C216.105 262.269 215.812 262.181 215.511 262.18C215.296 262.188 215.085 262.238 214.89 262.329C214.696 262.419 214.521 262.547 214.376 262.705C214.231 262.863 214.12 263.048 214.048 263.25C213.976 263.451 213.945 263.665 213.957 263.878Z" fill="white" stroke="#263238" stroke-linecap="round" stroke-linejoin="round"/>
<path d="M213.487 288.119C213.516 288.419 213.631 288.704 213.819 288.94C214.007 289.176 214.261 289.352 214.548 289.448C214.835 289.543 215.144 289.554 215.437 289.478C215.73 289.402 215.995 289.243 216.199 289.02C216.402 288.797 216.537 288.52 216.585 288.223C216.634 287.926 216.594 287.621 216.472 287.345C216.349 287.07 216.149 286.836 215.895 286.672C215.641 286.507 215.345 286.42 215.042 286.42C214.827 286.428 214.616 286.479 214.421 286.569C214.226 286.66 214.051 286.787 213.906 286.946C213.762 287.104 213.65 287.289 213.578 287.49C213.506 287.692 213.475 287.905 213.487 288.119Z" fill="white" stroke="#263238" stroke-linecap="round" stroke-linejoin="round"/>
<path d="M214.111 312.199C214.14 312.496 214.256 312.778 214.444 313.012C214.632 313.245 214.884 313.419 215.169 313.513C215.454 313.607 215.761 313.617 216.052 313.541C216.342 313.465 216.605 313.307 216.807 313.086C217.009 312.865 217.143 312.59 217.191 312.295C217.24 312 217.201 311.698 217.08 311.424C216.96 311.15 216.762 310.918 216.51 310.753C216.259 310.589 215.966 310.501 215.665 310.5C215.45 310.508 215.239 310.559 215.044 310.649C214.849 310.739 214.674 310.867 214.53 311.025C214.385 311.183 214.273 311.369 214.202 311.57C214.13 311.771 214.099 311.985 214.111 312.199Z" fill="white" stroke="#263238" stroke-linecap="round" stroke-linejoin="round"/>
<path d="M218.458 340.296C218.488 340.593 218.604 340.875 218.791 341.109C218.979 341.342 219.231 341.516 219.516 341.61C219.802 341.704 220.108 341.714 220.399 341.638C220.69 341.562 220.952 341.404 221.154 341.183C221.357 340.962 221.49 340.687 221.539 340.392C221.587 340.097 221.549 339.795 221.428 339.521C221.307 339.247 221.109 339.014 220.858 338.85C220.606 338.686 220.313 338.598 220.012 338.597C219.797 338.605 219.586 338.656 219.392 338.746C219.197 338.836 219.022 338.964 218.877 339.122C218.732 339.28 218.621 339.465 218.549 339.667C218.477 339.868 218.446 340.082 218.458 340.296Z" fill="white" stroke="#263238" stroke-linecap="round" stroke-linejoin="round"/>
<path d="M0.925149 348.306H385.499" stroke="#263238" stroke-linecap="round" stroke-linejoin="round"/>
</svg>
